<?xml version="1.0" standalone="no"?>
<!DOCTYPE svg PUBLIC "-//W3C//DTD SVG 1.1//EN" "http://www.w3.org/Graphics/SVG/1.1/DTD/svg11.dtd" >
<svg xmlns="http://www.w3.org/2000/svg">
<metadata>Generated by IcoMoon</metadata>
<defs>
<font id="afterlogic" horiz-adv-x="512">
<font-face units-per-em="512" ascent="512" descent="0" />
<missing-glyph horiz-adv-x="512" />
<glyph unicode="&#x20;" d="" horiz-adv-x="256" />
<glyph unicode="&#xe600;" d="M480.584 358.774h-44.906l36.514-38.893-25.332-23.719-37.102 39.532v-48.361h-25.639v46.62l-36.488-38.228-26.918 23.719 37.537 39.328h-46.39v25.638h46.365l-37.512 36.309 25.306 23.719 38.1-36.872v47.67h25.639v-46.57l37.895 36.13 26.918-23.719-38.458-36.667h44.471v-25.638zM315.391 343.832l-25.511-26.329 52.173-43.371 24.462 20.47v-8.597l-110.129-90.938-194.567 161.15h220.104l-0.179-11.591 33.647-0.793zM375.112 262.438l51.38-0.691v33.904l19.907-25.536 14.201 12.742v-191.42l-58.493 58.493-14.611-14.636 58.468-58.493h-380.154l58.493 58.493-14.611 14.636-58.493-58.493v238.168l204.7-160.843 119.213 93.676z" />
<glyph unicode="&#xe601;" d="M459.782 306.512v-51.087h-51.087v51.087h-51.087v51.087h51.087v51.087h51.087v-51.087h51.087v-51.087h-51.087zM301.362 268.351c-8.531-24.113-26.463-38.903-26.463-38.903s-1.916-18.365-2.018-22.708c0.383-1.712-9.476-29.962 46.106-38.111 55.608-8.123 67.026-26.003 77.524-35.94 10.473-9.962 12.746-55.889 12.746-55.889h-358.043c0 0-0.818 45.927 9.681 55.889 10.473 9.937 21.124 27.817 76.733 35.94 55.608 8.149 47.945 37.192 49.758 36.272-0.332 11.009-1.405 26.463-1.405 26.463s-21.686 12.159-30.218 36.272c-17.906 7.127-15.53 11.724-17.293 20.92 0 0-5.415 37.395 6.667 36.63 0 0 6.718 0 4.802 8.557-0.638 14.304-0.383 41.099 0.562 50.627 0.97 9.553 8.071 35.276 28.251 39.082 20.179 3.832 12.082 1.916 18.826 2.861 6.718 0.97 4.802 4.776 17.293 4.776l25.927 4.112c12.49 0 20.486-17.267 27.23-18.212 6.718-0.971 8.327 2.887 22.095 0.358 20.154-3.806 17.37-31.061 18.315-40.589 0.971-9.528 1.609-36.323-0.307-44.906s4.087-7.637 4.087-7.637c14.406 0 9.86-36.604 9.86-36.604-2.197-9.681-7.305-10.856-20.716-19.26z" />
<glyph unicode="&#xe602;" d="M478.919 343.768l-25.634-25.634-42.054 42.054-25.814-25.814 19.38 0.103c14.155 0 12.38-12.637 12.38-12.637 0-12.38-13.255-13.255-13.255-13.255h-256.313c-32.737 0-28.311-28.31-28.311-28.31l-29.16-203.475c0 0-12.405 1.93-12.405 15.211l-25.66 248.977c0 0-0.875-12.38-0.875 4.427s13.255 14.155 13.255 14.155h113.242c16.858 0 14.155-15.056 14.155-15.056 0-12.38 15.931-10.938 15.931-10.938l146.442 0.669-10.115 10.114 41.488 41.462-41.745 41.745 25.634 25.634 41.745-41.745 41.745 41.771 25.634-25.634-41.745-41.771 42.054-42.054zM137.881 270.778c0 0 8.364 12.38 16.806 12.38 61.923 0 283.979 0 283.979 0 30.060 0 22.108-28.311 22.108-28.311l-44.241-151.255c-5.302-19.483-22.108-26.637-22.108-26.637l-277.777-0.128c-9.728 0-7.953 15.185-7.953 15.185l29.186 178.767z" />
<glyph unicode="&#xe603;" d="M306.822 280.872h-102.43v-24.988h102.43v24.988zM127.397 358.443h255.62v-58.409l62.392 43.793-189.317 142.572-190.287-142.572 61.592-43.793v58.409zM460.011 91.414v237.824l-204.404-160.611-204.406 160.611v-237.824l58.404 58.409 14.6-14.615-58.398-58.409h379.604l-58.401 58.409 14.604 14.615 58.399-58.409zM306.822 333.225h-102.43v-26.572h102.43v26.572z" />
<glyph unicode="&#xe604;" d="M458.533 253.868l-43.99-150.423c-5.277-19.375-21.991-26.491-21.991-26.491l-276.249-0.128c-9.672 0-7.914 15.101-7.914 15.101l29.032 177.784c0 0 8.298 12.312 16.716 12.312 61.566 0 282.402 0 282.402 0 29.913 0 21.994-28.154 21.994-28.154zM401.977 307.31h-94.029l24.805 25.416 70.106 0.332c14.072 0 12.312-12.567 12.312-12.567 0-12.311-13.192-13.181-13.192-13.181zM179.867 409.947h50.737v78.731h76.68v-78.731h49.132l-87.474-101.382-89.077 101.382zM191.085 343.042c0-12.312 15.833-10.878 15.833-10.878l2.654 0.102 13.596-24.955h-76.072c-32.554 0-28.155-28.154-28.155-28.154l-28.997-202.356c0 0-12.355 1.92-12.355 15.127l-25.511 247.608c0 0-0.88-12.311-0.88 4.402s13.2 14.078 13.2 14.078h112.609c16.747 0 14.078-14.973 14.078-14.973z" />
<glyph unicode="&#xe605;" d="M419.846 197.159c2.007-106.726-89.752-170.556-149.623-171.56-1.356 0-2.467 0.271-3.824 0.271 54.827 4.529 89.481 31.563 77.659 101.466-11.958 70.826-78.851 62.582-63.748 179.288-88.776-85.766-38.233-194.31-53.879-198.241-7.972-1.979-40.89 25.95-51.872 61.851-39.127-68.276 1.058-126.656 56.020-141.218-75.219 12.825-113.614 62.392-129.314 108.516-26.41 77.659 17.517 162.34 8.081 188.29 19.957-10.982 46.178-51.872 47.181-92.762-10.982 110.712 94.769 175.464 73.808 253.339 29.773-47.967 114.644-50.868 105.669-210.443 6.887 82.784 41.947 93.413 68.9 101.575-17.272-64.128 14.1-135.035 14.94-180.372z" />
<glyph unicode="&#xe606;" d="M427.608 333.692h-31.297v-265.373c0-9.469-7.677-17.12-17.12-17.12h-247.126c-9.469 0-17.145 7.651-17.145 17.12v265.373h-30.504c-11.362 0-20.575 13.204-20.575 24.567s9.213 25.36 20.575 25.36h81.326v46.754c0 16.787 13.614 30.427 30.401 30.427h118.151c16.762 0 30.401-13.639 30.401-30.427v-46.754h82.913c11.362 0 20.549-13.998 20.549-25.36s-9.187-24.567-20.549-24.567zM242.743 114.024c0-6.884 5.578-12.462 12.463-12.462s12.463 5.579 12.463 12.462v207.512c0 6.884-5.579 12.463-12.463 12.463s-12.463-5.579-12.463-12.463v-207.512zM190.641 321.537c0 6.884-5.578 12.462-12.463 12.462-6.858 0-12.437-5.578-12.437-12.462v-207.513c0-6.884 5.578-12.462 12.437-12.462 6.884 0 12.463 5.579 12.463 12.462v207.512zM319.693 407.188c0 1.663-1.356 3.019-3.019 3.019h-122.143c-1.638 0-2.994-1.356-2.994-3.019v-23.569h128.157v23.569zM344.67 321.537c0 6.884-5.579 12.462-12.462 12.462s-12.437-5.578-12.437-12.462v-207.513c0-6.884 5.553-12.462 12.437-12.462s12.462 5.579 12.462 12.462v207.512z" />
<glyph unicode="&#xe607;" d="M382.502 382.524c-32.409 32.499-77.139 52.677-126.668 52.677-98.88 0-179.032-80.22-179.032-179.189 0-98.992 80.198-179.211 179.055-179.211 73.256 0 136.222 44.016 163.966 107.049l-48.86 20.981c-19.664-44.083-63.792-74.93-115.084-74.93-69.462 0-125.999 56.582-125.999 126.111s56.538 126.089 125.999 126.089c34.82 0 66.314-13.080 89.148-36.003l-53.056-51.917h143.052v141.021l-52.52-52.677z" />
<glyph unicode="&#xe608;" d="M419.855 263.909c7.116 5.601 16.725 19.294 16.879 33.681 0.103 11.536-5.729 26.693-34.041 33.373-5.113 1.208-10.457 1.798-16.365 1.798-6.526 0-12.692-0.719-18.729-1.387-5.241-0.616-10.2-1.182-14.721-1.182-11.587 0-20.964 3.7-29.159 21.709-2.44 5.369-5.318 20.27 2.595 59.835 5.318 26.513 6.217 53.335-23.019 69.752-9.351 5.267-18.652 6.346-25.178 3.006-6.295-3.237-10.019-9.814-11.073-19.551-0.334-2.775-0.154-5.832 0.077-9.84 0.771-12.82 2.055-34.272-17.933-65.076-26.231-28.749-39.976-55.981-42.75-61.788-12.691-7.424-24.227-13.206-35.454-18.832-12.024-6.063-24.51-12.306-38.332-20.528l-49.738-0.77h-6.089c-0.063-59.047 0.099-118.094-0.025-177.141h53.181l27.027-7.913c41.465-21.709 92.591-26.257 128.173-26.257 21.426 0 36.122 1.644 38.691 1.952 2.184-0.18 4.239-0.257 6.14-0.257 13.257 0 24.663 3.905 33.887 11.587 15.671 13.103 20.553 33.245 21.966 41.825 13.745 5.524 22.788 13.873 26.899 24.869 5.036 13.514 1.156 27.284-1.85 34.735 12.024 6.628 19.474 15.466 22.197 26.282 5.575 22.146-11.125 43.187-11.33 43.469-0.565 0.591-1.336 1.593-1.927 2.646z" />
<glyph unicode="&#xe609;" d="M489.719 365.962v-57.694h-57.694v57.694h-57.694v57.694h57.694v57.694h57.694v-57.694h57.694v-57.694h-57.694zM388.063 303.422c0.721-7.212 1.212-28.27-0.231-34.761-1.471-6.519 3.058-5.798 3.058-5.798 10.875 0 10.154-27.808 10.154-27.808-1.673-7.356-5.538-8.25-15.635-14.625-6.433-18.318-23.568-29.539-23.568-29.539s-1.471-13.962-1.529-17.25c0.288-1.327-7.99-22.76 33.924-28.933 41.886-6.202 49.127-19.76 57.031-27.318s9.606-40.444 9.606-40.444c0 0-56.742 0-111.349 0 0 0 0.115 29.712-11.221 61.588-8.192 12.202-19.76 23.25-36.030 32.799-0.26 8.365-1.067 21-1.067 21s-19.789 9.231-26.193 27.549c-13.5 5.423-11.712 8.913-13.039 15.894 0 0-4.096 28.386 5.019 27.809 0 0 7.76 0 6.317 6.519-0.49 10.846 0.375 31.876 1.096 39.116s3.404 26.799 18.606 29.683c15.202 2.913 9.115 1.442 14.192 2.192 5.048 0.721 3.606 3.606 13.010 3.606l19.558 3.144c9.404 0 15.433-13.125 20.51-13.846 5.077-0.75 3.577 2.192 13.962 0.26 15.202-2.885 13.096-23.597 13.817-30.837zM235.232 267.507c-8.365-23.885-29.568-38.539-29.568-38.539s-1.904-18.202-2.019-22.5c0.404-1.702-14.683-29.712 40.011-37.76 54.665-8.077 64.098-25.789 74.396-35.655 10.327-9.837 12.548-56.252 12.548-56.252h-330.586c0 0-0.779 46.414 9.52 56.252 10.327 9.865 14.51 27.577 69.204 35.655 54.665 8.048 46.242 36.837 48.030 35.943-0.346 10.904-1.385 26.222-1.385 26.222s-25.818 12.058-34.213 35.943c-17.596 7.067-15.26 11.596-16.991 20.741 0 0-5.337 37.040 6.549 36.261 0 0 6.606 0 4.731 8.51-0.635 14.164 0.49 41.626 1.442 51.059 0.952 9.462 7.962 34.962 27.779 38.741 19.847 3.779 11.885 1.904 18.52 2.827 6.606 0.952 4.731 4.731 16.991 4.731l25.5 4.097c12.289 0 20.164-17.135 26.77-18.087 6.606-0.923 8.192 2.885 21.721 0.375 19.846-3.779 17.106-30.779 18.030-40.241 0.952-9.433 1.587-36.895-0.317-45.376-1.875-8.51 4.038-7.558 4.038-7.558 14.164 0 9.692-36.29 9.692-36.29-2.163-9.606-7.183-10.76-20.395-19.096z" />
<glyph unicode="&#xe60a;" d="M345.92 168.307c55.647-8.191 67.088-26.236 77.557-36.27 10.52-10.034 11.748-55.339 11.748-55.339h-159.337l14.666 36.373-20.682 87.846c-7.218-7.218-8.242-13.438-8.242-13.438h-13.438c-12.414 0-9.317 11.365-9.317 11.365l-15.486-85.774 13.643-36.373h-160.233c0 0 0.231 45.305 10.725 55.339s21.142 28.079 76.815 36.27c55.647 8.216 47.993 37.524 49.81 36.603-0.333 11.109-1.408 26.697-1.408 26.697s-21.732 12.26-30.255 36.577c-17.917 7.192-15.563 11.825-17.303 21.117 0 0-5.427 37.729 6.68 36.935 0 0 6.732 0 4.812 8.652-0.666 14.436-0.41 39.393 0.537 49.017 0.972 9.624 8.114 35.579 28.31 39.418 20.196 3.865 12.082 1.946 18.814 2.893 6.732 0.972 4.812 4.812 17.328 4.812l25.954 4.172c12.491 0 20.529-17.457 27.26-18.404 6.732-0.973 8.319 2.918 22.115 0.358 20.195-3.839 17.38-31.33 18.353-40.954 0.947-9.599 1.587-34.581-0.333-43.233s4.096-7.679 4.096-7.679c14.411 0 9.88-36.935 9.88-36.935-2.227-9.778-7.32-10.955-20.759-19.453-8.524-24.317-26.466-39.214-26.466-39.214s-1.945-18.558-2.022-22.935c0.358-1.74-9.496-30.229 46.176-38.445zM260.582 38.661h-9.291l-14.257 38.036h38.856l-15.307-38.036z" />
<glyph unicode="&#xe60b;" d="M281.6 76.8h76.8l-153.6 179.2 153.6 179.2h-76.8l-153.6-179.2z" />
<glyph unicode="&#xe60c;" d="M25.6 256l204.8 204.8v-128c0 0 281.6-25.6 281.6-281.6 0 0-76.8 153.6-281.6 128v-128z" />
<glyph unicode="&#xe60d;" d="M332.8 179.2v-128l-204.8 204.8 204.8 204.8v-128c0 0 256 0 256-256 0 0-51.2 128-256 102.4zM76.8 256l128-128v-76.8l-204.8 204.8 204.8 204.8v-76.8z" />
<glyph unicode="&#xe60e;" d="M204.8 460.8l281.6-204.8-281.6-204.8 32.285 141.545h-185.885v123.282h185.885l-32.285 144.772z" />
<glyph unicode="&#xe60f;" d="M449.678 115.118h-57.123l-0.348 45.23c0 0-0.221 18.503-17.808 18.503l-235.106 0.348c0 0-18.977-0.348-18.977-17.966l-0.126-45.42-61.614-0.253c-38.176 0-32.705 35.235-32.705 35.235v64.33c0 12.499 5.057 17.595 16.131 30.839s54.339 42.162 54.339 42.162c8.793 19.072 35.235 19.072 35.235 19.072l249.118-0.348c22.014 0 32.293-19.104 32.293-19.104s47.728-32.974 55.794-41.783c8.065-8.809 17.618-17.517 17.618-33.78s0-62.37 0-62.37c0-33.748-36.721-34.697-36.721-34.697zM153.6 443.183c0 0-1.834 17.618 17.618 17.618l135.982-0 64.101-64.238v-63.763h-217.701zM332.8 153.6l51.2-102.4h-256l51.2 102.4z" />
<glyph unicode="&#xe610;" d="M76.8 76.8v166.272h51.2v-115.072h256v115.072h51.2v-166.272zM256 179.2l-153.6 153.6h112.65l-0.579 128 82.509-0.496-0.082-127.504h112.704z" />
<glyph unicode="&#xe611;" d="M256.007 435.226l67.2-67.2-134.502-134.4 44.903-45.492 134.4 135.092 67.2-67.2v179.2zM307.207 128.001h-179.2l-0.103 179.2h76.785v51.105h-127.89v-281.505l281.6 0v128h-51.2z" />
<glyph unicode="&#xe612;" d="M414.668 332.493h-31.272v-238.587c0-9.461-7.671-17.106-17.106-17.106h-246.923c-9.46 0-17.132 7.645-17.132 17.106v238.587h-30.478c-11.353 0-20.558 14.161-20.558 25.513s9.205 25.994 20.558 25.994h81.842v46.060c0 16.774 13.020 30.402 29.793 30.402h119.7c16.748 0 29.476-13.63 29.707-30.402v-46.060h81.868c11.353 0 20.532-14.641 20.532-25.994s-9.18-25.513-20.532-25.513zM230.4 140.452c0-6.878 5.922-12.452 12.8-12.452s12.8 5.574 12.8 12.452v179.895c0 6.878-5.922 12.453-12.8 12.453s-12.8-5.574-12.8-12.452zM179.2 320.347c0 6.878-5.922 12.453-12.8 12.453-6.852 0-12.8-5.574-12.8-12.452v-179.896c0-6.878 5.947-12.452 12.8-12.452 6.878 0 12.8 5.574 12.8 12.452zM307.2 406.582c0 1.662-1.355 3.017-3.017 3.017h-121.991c-1.637 0-2.992-1.355-2.992-3.017v-22.583h128zM332.8 320.347c0 6.878-5.922 12.453-12.8 12.453s-12.8-5.574-12.8-12.452v-179.896c0-6.878 5.922-12.452 12.8-12.452s12.8 5.574 12.8 12.452z" />
<glyph unicode="&#xe613;" d="M254.966 460.748c-3.377-0.356-6.513-2.5-8.070-5.517l-62.5-121.154-134.57-21.924c-3.71-0.605-6.975-3.407-8.136-6.983s-0.163-7.761 2.484-10.429l95.918-96.879-20.748-134.754c-0.573-3.716 1.082-7.69 4.124-9.899s7.333-2.555 10.69-0.861l121.78 61.278 121.749-61.356c3.355-1.693 7.643-1.348 10.685 0.859s4.699 6.176 4.13 9.891l-20.642 134.759 95.976 96.831c2.641 2.669 3.633 6.851 2.473 10.421s-4.421 6.371-8.125 6.978l-134.556 22.014-62.426 121.202c-1.887 3.663-6.138 5.957-10.234 5.524z" />
<glyph unicode="&#xe614;" d="M411.377 187.628c1.895-100.797-84.766-161.081-141.31-162.029-1.281 0-2.33 0.256-3.611 0.256 51.781 4.276 84.51 29.809 73.344 95.829-11.293 66.891-74.471 59.106-60.207 169.327-83.844-81.001-36.108-183.514-50.885-187.227-7.529-1.87-38.618 24.508-48.99 58.414-36.954-64.483 0.999-119.62 52.909-133.372-71.040 12.113-107.302 58.926-122.129 102.488-24.943 73.344 16.544 153.322 7.632 177.829 18.849-10.372 43.612-48.99 44.56-87.608-10.371 104.562 89.504 165.716 69.708 239.265 28.119-45.303 108.275-48.043 99.799-198.751 6.505 78.184 39.617 88.223 65.072 95.931-16.313-60.565 13.317-127.533 14.111-170.351z" />
<glyph unicode="&#xe615;" d="M386.154 140.17c-0.271-1.103-0.985-2.050-1.973-2.616-0.631-0.361-1.341-0.565-2.054-0.565-0.4 0-0.805 0.082-1.197 0.191l-149.063 45.419c-1.333 0.409-2.367 1.461-2.76 2.796-0.395 1.332-0.095 2.769 0.803 3.821l148.392 175.65-185.847-167.444c-1.083-0.975-2.613-1.308-4.026-0.871l-134.34 42.7c-1.603 0.514-2.731 1.923-2.875 3.591-0.133 1.693 0.749 3.257 2.246 4.026l401.327 205.246c1.421 0.743 3.168 0.566 4.442-0.437 1.269-1 1.837-2.668 1.454-4.232l-74.527-307.266zM234.28 162.661l41.203-12.695c1.231-0.358 2.219-1.308 2.662-2.512 0.457-1.207 0.308-2.539-0.385-3.642l-41.201-65.090c-0.769-1.204-2.101-1.923-3.49-1.923-0.387 0-0.774 0.082-1.149 0.164-1.777 0.538-2.99 2.154-2.99 4v77.76c0 1.308 0.626 2.539 1.683 3.308 1.052 0.795 2.423 1.026 3.667 0.642z" />
<glyph unicode="&#xe616;" d="M215.024 459.967v-101.555h-52.584l93.608-109.277 93.63 109.276h-52.584v101.555zM148.194 289.505c-15.146-0.010-40.701-1.439-49.197-10.544 0 0-47.797-59.435-47.797-75.026l23.639-98.868c4.338-16.19 12.647-28.267 28.245-28.267 101.938 0 203.877 0 305.816 0 15.597 0 23.907 12.078 28.245 28.267l23.639 98.868c0 15.591-47.797 75.026-47.797 75.026-12.358 13.244-60.825 10.25-60.825 10.25l3.906-47.978h29.555c5.914 0 10.252-10.084 15.014-18.333 4.478-7.755 5.418-9.596 5.418-9.596h-67.733c-7.087 0-10.59-9.757-14.134-15.895-7.366-12.759-10.527-18.93-13.637-24.317-3.329-5.765-7.477-14.134-14.134-14.134-26.974 0-53.876 0.022-80.851 0.022-6.656 0-10.805 8.346-14.133 14.111-3.11 5.387-6.27 11.558-13.637 24.317-3.543 6.138-7.047 15.895-14.133 15.895h-67.734c0 0 0.941 1.84 5.418 9.596 4.763 8.249 9.1 18.333 15.014 18.333h29.577l3.883 47.978c0 0-4.743 0.298-11.627 0.293z" />
<glyph unicode="&#xe617;" d="M306.801 76.8h-178.801c-14.136 0-25.6 11.464-25.6 25.61v307.181c0 14.146 11.464 25.61 25.6 25.61h230.4c14.137 0 25.601-11.464 25.601-25.61v-256.788zM360.401 166.009h-53.999c0 0-11.996 0-11.996-12.403v-51.197c0 0-2.402-19.599 8.798-8.402l62 61.99c0 0 14 10.413-4.803 10.012z" />
<glyph unicode="&#xe618;" d="M256 358.4c-56.554 0-102.4-45.846-102.4-102.4s45.846-102.4 102.4-102.4c56.554 0 102.4 45.846 102.4 102.4s-45.846 102.4-102.4 102.4z" />
<glyph unicode="&#xe619;" d="M345.92 168.307c55.647-8.191 67.088-26.236 77.557-36.27 10.52-10.034 11.749-55.339 11.749-55.339h-159.338l14.666 36.373-20.682 87.846c-7.218-7.218-8.242-13.438-8.242-13.438h-13.438c-12.415 0-9.317 11.365-9.317 11.365l-15.486-85.774 13.643-36.373h-160.233c0 0 0.231 45.305 10.725 55.339s21.142 28.079 76.815 36.27c55.647 8.216 47.993 37.524 49.81 36.603-0.333 11.109-1.408 26.697-1.408 26.697s-21.732 12.26-30.255 36.577c-17.917 7.192-15.563 11.825-17.303 21.117 0 0-5.427 37.729 6.68 36.935 0 0 6.732 0 4.812 8.652-0.666 14.436-0.41 39.393 0.537 49.017 0.972 9.624 8.114 35.579 28.31 39.418 20.196 3.865 12.082 1.946 18.814 2.893 6.732 0.972 4.812 4.812 17.329 4.812l25.955 4.172c12.491 0 20.529-17.457 27.26-18.404 6.732-0.973 8.319 2.918 22.115 0.358 20.195-3.839 17.38-31.33 18.353-40.954 0.947-9.599 1.587-34.581-0.332-43.232s4.096-7.679 4.096-7.679c14.411 0 9.88-36.935 9.88-36.935-2.227-9.778-7.32-10.956-20.759-19.453-8.524-24.317-26.466-39.214-26.466-39.214s-1.945-18.558-2.022-22.935c0.358-1.74-9.496-30.229 46.176-38.446zM260.582 38.661h-9.291l-14.257 38.036h38.856l-15.307-38.036z" />
<glyph unicode="&#xe61a;" d="M419.668 342.529c-9.594 24.45-22.923 45.439-39.959 62.938-16.736 17.526-36.661 31.128-59.803 40.805-23.142 9.703-48.055 14.528-74.795 14.528-26.876 0-52.198-5.179-75.967-15.591-23.768-10.385-44.321-24.722-61.656-43.012-17.526-18.617-31.264-40.341-41.268-65.173-10.004-24.859-15.019-51.68-15.019-80.437 0-30.337 4.825-58.14 14.419-83.463 9.622-25.322 23.032-47.046 40.205-65.2 17.036-17.963 37.425-31.918 61.085-41.841 23.687-9.922 49.364-14.882 77.030-14.882 16.409 0 31.237 0.763 44.43 2.344 13.22 1.553 26.93 3.979 41.159 7.25v49.963c-12.974-3.925-27.176-7.033-42.549-9.377-15.401-2.372-29.683-3.543-42.794-3.543-18.617 0-36.444 3.407-53.48 10.221-17.036 6.787-31.946 16.845-44.757 30.12-13.302 13.438-23.742 30.093-31.319 49.936-7.578 19.871-11.367 42.522-11.367 68.007 0 23.905 4.034 45.711 12.075 65.418 8.041 19.68 18.726 36.252 32 49.69 13.901 13.928 29.111 24.395 45.602 31.428s33.963 10.548 52.417 10.548c19.543 0 37.697-3.162 54.515-9.486 16.791-6.324 31.455-16.054 43.966-29.193 12.348-12.975 21.942-29.084 28.839-48.3 6.869-19.216 10.303-41.649 10.303-67.299 0-14.528-1.445-28.838-4.334-42.903s-6.596-26.249-11.121-36.579h-35.19v189.44l-51.817-0.218v-14.31c-4.225 4.225-10.249 8.368-18.044 12.429-7.823 4.062-16.736 6.106-26.739 6.106-12.511 0-24.505-2.889-35.98-8.695-11.502-5.779-21.452-13.575-29.901-23.441-8.913-10.767-16.028-23.605-21.343-38.433-5.315-14.856-7.959-31.346-7.959-49.5 0-17.663 2.126-34.017 6.433-49.118 4.306-15.074 10.113-27.476 17.472-37.152 7.496-10.003 16.409-17.663 26.739-22.978 10.304-5.315 21.397-7.986 33.281-7.986 8.123 0 14.555 0.49 19.244 1.418s9.758 2.426 15.237 4.443c4.825 1.717 9.267 3.844 13.247 6.351 3.979 2.481 8.014 5.151 12.075 7.959l3.516-18.29h114.428c8.886 14.392 16.437 33.091 22.624 56.151 6.16 23.060 9.267 45.302 9.267 66.726 0 30.31-4.825 57.704-14.447 82.182zM260.947 185.661c-6.024-3.216-13.084-4.798-21.233-4.798-15.455 0-26.603 5.969-33.391 17.935-6.815 11.939-10.221 30.202-10.221 54.733 0 22.188 4.061 40.014 12.212 53.479 8.123 13.438 19.762 20.144 34.917 20.144 6.896 0 13.029-0.736 18.426-2.208 5.37-1.499 11.284-3.87 17.69-7.169v-118.161c-6.242-6.106-12.402-10.767-18.399-13.956z" />
<glyph unicode="&#xe61b;" d="M255.981 409.599c84.863 0 153.619-68.793 153.619-153.618s-68.755-153.581-153.619-153.581c-84.825 0-153.581 68.755-153.581 153.581s68.755 153.619 153.581 153.619z" />
<glyph unicode="&#xe61c;" d="M0 281.601l205.002-204.8 306.998 307.2-102.4 102.4-204.8-204.8-102.4 102.4z" />
<glyph unicode="&#xe61d;" d="M307.403 332.8l-153.714-154.311-153.689 154.312h307.403z" horiz-adv-x="314" />
<glyph unicode="&#xe61e;" d="M76.8 460.784v-102.39h102.413v102.39h-102.413zM76.8 307.187v-102.39h102.413v102.39h-102.413zM76.8 153.59v-102.39h102.413v102.39h-102.413z" />
<glyph unicode="&#xe61f;" d="M255.029 460.748c-3.377-0.356-6.513-2.5-8.070-5.517l-62.5-121.154-134.571-21.924c-3.71-0.605-6.975-3.407-8.136-6.983s-0.163-7.761 2.484-10.429l95.918-96.879-20.748-134.754c-0.573-3.716 1.082-7.69 4.124-9.899s7.333-2.555 10.69-0.861l121.781 61.278 121.749-61.356c3.355-1.693 7.643-1.349 10.685 0.859s4.699 6.176 4.13 9.891l-20.642 134.759 95.976 96.831c2.641 2.669 3.633 6.851 2.473 10.421s-4.421 6.371-8.125 6.978l-134.556 22.014-62.426 121.202c-1.887 3.663-6.138 5.957-10.234 5.524z" />
<glyph unicode="&#xe620;" d="M136.756 153.543h-17.26l-39.971 221.285c-1.817 13.934-2.725 24.319-2.725 31.155 0 16.563 5.072 29.84 15.216 39.831 10.144 9.99 22.332 14.986 36.564 14.986s26.268-4.996 36.11-14.986c9.841-9.991 14.762-24.846 14.762-44.564 0-6.31-0.606-15.118-1.817-26.422zM128.1 127.904c10.643 0 19.726-3.76 27.245-11.28s11.28-16.486 11.28-26.899c0-10.644-3.76-19.726-11.28-27.245s-16.602-11.28-27.245-11.28c-10.644 0-19.725 3.76-27.245 11.28s-11.28 16.602-11.28 27.245c0 10.412 3.76 19.378 11.28 26.899s16.602 11.28 27.245 11.28z" />
<glyph unicode="&#xe621;" d="M453.603 76.8h-395.237c-18.087 0-32.767 14.679-32.767 32.796v292.807c0 18.087 14.679 32.797 32.767 32.797h395.237c18.118 0 32.796-14.709 32.796-32.797v-292.807c0-18.118-14.68-32.796-32.796-32.796zM248.239 186.781c-35.602 5.221-29.291 23.295-29.548 24.385 0.086 2.783 1.32 14.545 1.32 14.545s11.475 9.467 16.926 24.901c8.578 5.393 11.848 6.139 13.282 12.336 0 0 2.898 23.438-6.34 23.438 0 0-3.844-0.631-2.611 4.877 1.233 5.48 0.832 22.635 0.201 28.745-0.602 6.111 1.205 23.553-11.733 25.991-8.807 1.607-9.84-0.861-14.143-0.229-4.303 0.603-9.41 11.647-17.413 11.647l-16.611-2.639c-8.004 0-6.77-2.438-11.073-3.041s0.889 0.602-12.020-1.836c-12.939-2.439-17.5-18.906-18.102-25.016s-0.774-23.238-0.345-32.417c1.205-5.48-3.099-5.48-3.099-5.48-7.745 0.488-4.246-23.438-4.246-23.438 1.119-5.881-0.401-8.836 11.045-13.397 5.48-15.434 19.335-23.209 19.335-23.209s0.717-9.897 0.918-16.954c-1.176 0.603 3.73-17.988-31.844-23.209-35.602-5.221-42.429-16.639-49.142-23.008-6.684-6.368-6.197-35.774-6.197-35.774h229.217c0 0-1.463 29.405-8.176 35.774-6.685 6.369-14 17.786-49.601 23.008zM435.136 359.148l-127.519-0.748-0.416-25.6 128 1.315-0.064 25.032zM435.136 282.347l-127.551-0.747-0.389-26.617 128 1.315-0.060 26.048z" />
<glyph unicode="&#xe622;" d="M358.171 435.2c-13.389 0-27.163-4.208-37.335-14.372l-163.602-163.486c-24.924-24.904-22.079-59.351-3.412-78.003s53.157-21.495 78.082 3.409l136.322 136.213c2.678 2.59 4.341 6.214 4.341 10.226 0 7.857-6.375 14.226-14.238 14.226-4.012 0-7.636-1.658-10.224-4.326l-136.341-136.231c-15.976-15.964-29.201-12.002-37.8-3.409s-12.579 21.822 3.397 37.785l163.602 163.471c3.462 3.458 10.148 6.052 17.209 6.052s13.733-2.594 17.195-6.052l27.264-27.243c3.461-3.458 6.057-10.139 6.057-17.195s-2.596-13.722-6.057-17.18l-218.131-217.956c-22.234-22.216-53.067-22.216-75.301 0l-13.633 13.622c-22.234 22.216-22.234 53.024 0 75.24l163.603 163.47c2.673 2.59 4.333 6.211 4.333 10.22 0 7.857-6.375 14.226-14.238 14.226-4.016 0-7.643-1.661-10.232-4.333l-163.606-163.474c-32.3-32.274-32.3-83.198 0-115.473l13.632-13.622c32.3-32.274 83.266-32.274 115.566 0l218.147 217.956c10.173 10.164 14.399 23.926 14.399 37.304s-4.226 27.14-14.399 37.304l-27.264 27.258c-10.173 10.164-23.946 14.372-37.334 14.372z" />
<glyph unicode="&#xe623;" d="M407.161 76.8h-327.922c-15.477 0-28.039 12.561-28.039 28.065v301.725c0 15.477 12.561 28.611 28.039 28.611h23.161v-15.025c0-36.175 25.6-46.668 51.2-46.51 25.6 0.556 51.2 10.335 51.2 46.944v14.591h76.8v-15.025c0-36.175 25.6-46.099 51.2-46.51 25.6-0.014 51.2 10.335 51.2 46.944v14.591h23.161c15.503 0 28.039-13.132 28.039-28.611v-301.725c0-15.503-12.536-28.065-28.039-28.065zM332.8 128h51.2v51.2h-51.2zM332.8 204.8h51.2v51.2h-51.2zM179.2 128h51.2v51.2h-51.2zM102.4 128h51.2v51.2h-51.2zM102.4 204.8h51.2v51.2h-51.2zM153.881 332.8h-51.481l-0.128-51.2h51.481zM179.2 204.8h51.2v51.2h-51.2zM230.886 332.8h-51.277l-0.128-51.2h51.277zM307.123 332.8h-50.688l-0.128-51.2h50.688zM307.2 256h-51.2v-51.2h51.2zM307.2 179.2h-51.2v-51.2h51.2zM384.128 332.8h-51.456l-0.767-51.2h52.096zM332.8 393.594c-11.18 0-20.262 10.029-20.262 22.411v22.385c0 12.382 9.082 22.411 20.262 22.411s20.236-10.029 20.236-22.411v-22.385c0-12.382-9.056-22.411-20.236-22.411zM153.6 393.926c-11.18 0-20.236 9.978-20.236 22.283v22.308c0 12.305 9.056 22.282 20.236 22.282 11.154 0 20.21-9.977 20.21-22.282v-22.308c0-12.305-9.056-22.283-20.21-22.283z" />
<glyph unicode="&#xe624;" d="M307.394 179.2l-153.71 154.281-153.684-154.281h307.394z" horiz-adv-x="307" />
<glyph unicode="&#xe625;" d="M358.4 281.6v51.2c0 56.949-44.548 102.4-102.4 102.4s-102.4-45.452-102.4-102.4v-51.2h-76.8v-204.8h358.4v204.8zM287.793 116.897h-63.609l13.435 62.368c-10.906 6.277-18.335 19.374-18.335 32.697 0 20.007 16.439 36.942 36.716 36.942s36.738-15.762 36.738-35.767c0-13.322-7.429-27.797-18.358-34.074zM319.516 281.6h-127.032v51.2c0 34.978 27.997 62.703 63.516 62.703 35.497 0 63.516-27.726 63.516-62.703z" />
<glyph unicode="&#xe626;" d="M240.624 431.413c-12.493 0-10.582-3.822-17.293-4.777-6.736-0.955 1.362 0.956-18.846-2.866-20.184-3.822-27.326-29.571-28.281-39.101-0.956-9.555-1.195-36.379-0.573-50.686 1.935-8.575-4.801-8.575-4.801-8.575-12.087 0.764-6.641-36.641-6.641-36.641 1.72-9.22-0.645-13.83 17.269-20.972 8.551-24.101 30.263-36.283 30.263-36.283s1.075-15.478 1.409-26.49c-1.815 0.908 5.828-28.161-49.827-36.307-55.63-8.145-66.308-26.036-76.793-35.996s-9.698-55.918-9.698-55.918h358.386c0 0-2.269 45.957-12.779 55.918-10.486 9.961-21.904 27.851-77.558 35.996s-45.789 36.426-46.171 38.146c0.096 4.324 2.031 22.74 2.031 22.74s17.938 14.81 26.466 38.935c13.424 8.408 18.536 9.578 20.757 19.276 0 0 4.538 36.641-9.889 36.641 0 0-5.995-0.956-4.084 7.619 1.935 8.599 1.29 35.423 0.31 44.954-0.955 9.53 1.863 36.808-18.344 40.63-13.782 2.532-15.382-1.314-22.118-0.359-6.712 0.932-14.738 18.249-27.23 18.249l-25.964-4.133z" />
<glyph unicode="&#xe627;" d="M431.557 76.8h-352.929c0 0-27.427 0-27.427 30.185v206.033l87.119-76.993-57.594-117.862 73.329 103.957c0 0 36.447-35.748 57.133-50.528 13.979-9.988 27.633-25.373 44.814-25.462 16.847-0.079 30.447 14.781 44.199 24.512 21.063 14.904 57.926 51.346 57.926 51.346l74.019-104.247-55.597 120.581 84.254 74.696v-206.983c0 0-2.733-29.235-29.244-29.235zM227.555 177.793l-175.716 150.633c0 0-1.177 29.974 26.354 29.974h355.178c0 0 27.428-0.313 27.428-30.448l-175.652-150.159c-22.133-18.921-36.019-18.494-57.593 0z" />
<glyph unicode="&#xe628;" d="M204.797 460.8c-84.831 0-153.596-68.766-153.596-153.596s68.766-153.596 153.596-153.596c33.178 0 63.891 10.519 89.001 28.403l130.793-130.793 36.192 36.192-130.793 130.793c17.885 25.11 28.403 55.824 28.403 89.002 0 84.831-68.765 153.596-153.596 153.596zM204.797 409.616c56.554 0 102.413-45.859 102.413-102.413s-45.859-102.39-102.413-102.39c-56.554 0-102.39 45.837-102.39 102.39s45.836 102.413 102.39 102.413z" />
<glyph unicode="&#xe629;" d="M256 358.4c-56.554 0-102.4-45.846-102.4-102.4s45.846-102.4 102.4-102.4c56.554 0 102.4 45.846 102.4 102.4s-45.846 102.4-102.4 102.4zM256 310.236c29.949 0 54.223-24.286 54.223-54.235s-24.274-54.223-54.223-54.223c-29.95 0-54.235 24.274-54.235 54.223s24.286 54.235 54.235 54.235zM256 435.2c-98.969 0-179.2-80.231-179.2-179.2s80.231-179.2 179.2-179.2c98.969 0 179.2 80.231 179.2 179.2s-80.231 179.2-179.2 179.2zM256 383.471c70.394 0 127.447-57.081 127.447-127.475s-57.053-127.447-127.447-127.447c-70.394 0-127.475 57.053-127.475 127.447s57.081 127.475 127.475 127.475z" />
<glyph unicode="&#xe62a;" d="M256 435.2c-98.969 0-179.2-80.231-179.2-179.2s80.231-179.2 179.2-179.2c98.969 0 179.2 80.231 179.2 179.2s-80.231 179.2-179.2 179.2zM256 383.471c70.394 0 127.447-57.081 127.447-127.475s-57.053-127.447-127.447-127.447c-70.394 0-127.475 57.053-127.475 127.447s57.081 127.475 127.475 127.475z" />
<glyph unicode="&#xe62b;" d="M256.010 435.19c-98.969 0-179.2-80.231-179.2-179.2s80.231-179.2 179.2-179.2c89.369 0 163.432 65.437 176.964 151l-7.993-7.993-41.656 41.634c0.075-1.802 0.113-3.62 0.113-5.441 0-70.394-57.036-127.429-127.429-127.429s-127.474 57.036-127.474 127.429c0 70.394 57.081 127.474 127.474 127.474 1.82 0 3.617-0.037 5.418-0.113l-16.007 16.007 34.273 34.273c-7.757 1.026-15.647 1.558-23.684 1.558zM317.443 435.19l-35.831-35.831 53.757-53.758-53.781-53.757 35.853-35.854 53.757 53.757 53.757-53.757 35.853 35.853-53.781 53.757 53.757 53.757-35.831 35.831-53.757-53.757-53.757 53.757z" />
<glyph unicode="&#xe62c;" d="M296.954 284.217l-24.37-23.726c-1.796 2.252-3.676 3.163-6.358 5.87-5.255 5.255-11.582 7.882-18.981 7.882s-13.726-2.627-18.981-7.882l-100.642-100.695c-5.255-5.255-7.882-11.555-7.882-18.981 0-7.399 2.627-13.726 7.882-18.954 5.255-5.255 11.582-7.882 18.981-7.882s13.726 2.627 18.981 7.882l63.431 63.431 37.64-38.284-58.364-58.337c-13.27-13.271-30.188-19.088-50.804-17.479-20.589 1.635-38.739 10.294-54.477 26.032-15.603 15.603-24.236 33.726-25.924 54.396s4.075 37.64 17.346 50.911l91.125 91.151c13.27 13.27 30.187 19.088 50.777 17.453 20.616-1.608 38.766-10.294 54.504-26.032 6.193-6.193 3.034-4.074 6.116-6.755zM215.046 227.783l24.369 23.726c1.796-2.252 3.677-3.163 6.358-5.87 5.255-5.255 11.581-7.882 18.981-7.882s13.726 2.627 18.981 7.882l100.642 100.696c5.255 5.255 7.882 11.555 7.882 18.981 0 7.399-2.627 13.726-7.882 18.954-5.255 5.255-11.582 7.882-18.981 7.882s-13.726-2.628-18.981-7.882l-63.43-63.431-37.641 38.284 58.364 58.337c13.271 13.271 30.188 19.088 50.803 17.48 20.589-1.636 38.74-10.295 54.476-26.032 15.603-15.603 24.236-33.726 25.925-54.396s-4.075-37.64-17.346-50.911l-91.125-91.151c-13.271-13.271-30.188-19.089-50.777-17.453-20.617 1.608-38.766 10.295-54.503 26.032-6.193 6.193-3.034 4.074-6.117 6.755z" />
<glyph unicode="&#xe62d;" d="M195.2 124.8l-144-48 48.001 144 240 240 96-96zM99.201 124.8l71.999 24-48.001 48zM147.2 220.8l48-48 144 144-48 48z" />
<glyph unicode="&#xe62e;" d="M154.132 282.032c-8.419 0-15.593-5.475-16.708-12.305l-29.035-177.8c0 0-1.748-15.104 7.925-15.104l276.239 0.135c0 0 16.714 7.108 21.99 26.483l43.981 150.436c0 0 7.921 28.154-21.991 28.154h-282.403zM64.408 358.413c0 0-13.208-0.011-13.208-14.089l26.394-252.397c2.193-12.894 12.35-15.127 12.35-15.127l29.013 202.364c0 0 3.432 28.175 28.154 28.155l211.289-0.119v25.603l-153.603 0.009c0 0-13.732 0.009-13.704 10.634 0 0 0.554 14.969-14.089 14.969zM383.984 460.8v-51.207h-51.184v-51.184h51.184v-51.207h51.207v51.207h51.207v51.184h-51.207v51.207h-51.207z" />
<glyph unicode="&#xe62f;" d="M106.242 435.2c-16.245 0-29.442-13.151-29.442-29.419v-299.517c0-16.269 13.197-29.464 29.442-29.464h187.571l-59.267 59.312c-20.355 20.355-16.923 56.798 7.699 81.393 24.594 24.622 61.061 28.077 81.414 7.721l16.233-16.233 44.117 44.117v94.736l-88.775 87.354zM278.301 419.666c1.49-0.034 3.526-1.133 6.3-3.906l70.193-70.217c0 0 15.839-11.767-5.464-11.312h-61.096c0 0-13.591 0-13.591 14.043v57.98c0 0-1.664 13.531 3.656 13.411zM341.224 161.223l92.673 92.673 41.882-41.905-135.149-135.173-72.289 72.948c-11.736 11.736-11.737 30.763 0 42.5 11.734 11.736 30.761 11.735 42.497-0z" />
<glyph unicode="&#xe630;" d="M382.288 76.8h-252.577c-15.075 0-27.311 12.236-27.311 27.334v303.755c0 15.099 12.237 27.31 27.311 27.31h197.503l82.385-81.097v-249.969c0-15.099-12.237-27.334-27.311-27.334zM230.4 133.438c0-1.526 0.572-2.815 1.741-3.864 1.121-1.050 2.481-1.574 4.007-1.574h25.784c1.526 0 2.863 0.524 4.007 1.574 1.146 1.050 1.717 2.337 1.717 3.864v32.391c0 1.526-0.572 2.862-1.717 4.007-1.144 1.145-2.481 1.717-4.007 1.717h-25.784c-1.526 0-2.886-0.572-4.007-1.717-1.168-1.145-1.741-2.481-1.741-4.007zM301.908 333.747c-5.057 3.435-11.281 5.868-18.627 7.322-7.347 1.431-15.624 2.147-24.782 2.147-7.467 0-15.099-0.477-22.922-1.431-7.848-0.978-14.813-2.218-20.919-3.745-2.505-0.572-3.983-1.479-4.46-2.719s-0.715-3.006-0.715-5.295v-17.769c0-4.198 1.622-6.297 4.889-6.297h1.145c6.297 0.763 13.262 1.479 20.918 2.146 7.633 0.668 14.979 1.002 22.064 1.002 5.914 0 10.16-0.907 12.736-2.719 2.601-1.813 3.889-4.436 3.889-7.895v-4.579c0-4.579-0.549-8.873-1.599-12.904-1.050-4.007-3.291-8.014-6.726-12.022l-18.342-21.204c-3.434-4.007-6.201-7.609-8.299-10.757s-3.817-6.297-5.152-9.445c-1.359-3.149-2.267-6.464-2.72-9.899-0.501-3.435-0.739-7.442-0.739-12.022v-10.901c0-3.625 1.813-5.438 5.463-5.438h23.78c1.526 0 2.862 0.524 4.007 1.574s1.717 2.337 1.717 3.864v10.901c0 4.579 1.24 8.491 3.721 11.735s5.652 7.18 9.469 11.759l17.483 20.632c4.77 5.724 8.538 10.733 11.306 15.050 2.766 4.293 4.841 8.158 6.178 11.592s2.147 6.56 2.433 9.326c0.286 2.767 0.43 5.486 0.43 8.158v4.579c0 8.611-1.337 15.766-4.007 21.514-2.696 5.725-6.56 10.304-11.616 13.739zM389.539 350.668l-66.166 66.189c-11.974 11.95-9.397-8.968-9.397-8.968v-54.645c0-13.238 12.809-13.238 12.809-13.238h57.627c20.059-0.429 5.127 10.662 5.127 10.662z" />
<glyph unicode="&#xe631;" d="M130.845 76.8h-79.644v24.946l49.401 51.568h-49.401v25.886h79.644v-25.6l-44.959-51.2h44.959zM265.841 128h-119.466v33.153l74.101 86.314h-74.101v34.134h119.466v-33.705l-67.439-85.762h67.439zM460.8 204.8h-179.2v49.729l111.152 129.471h-111.152v51.2h179.2v-50.556l-101.159-128.644h101.159z" />
<glyph unicode="&#xe632;" d="M256 358.4c-56.554 0-102.4-45.846-102.4-102.4s45.846-102.4 102.4-102.4c56.554 0 102.4 45.846 102.4 102.4s-45.846 102.4-102.4 102.4zM256 310.236c29.949 0 54.223-24.286 54.223-54.235s-24.274-54.223-54.223-54.223c-29.95 0-54.235 24.274-54.235 54.223s24.286 54.235 54.235 54.235zM256 435.2c-98.969 0-179.2-80.231-179.2-179.2s80.231-179.2 179.2-179.2c98.969 0 179.2 80.231 179.2 179.2s-80.231 179.2-179.2 179.2zM256 383.471c70.394 0 127.447-57.081 127.447-127.475s-57.053-127.447-127.447-127.447c-70.394 0-127.475 57.053-127.475 127.447s57.081 127.475 127.475 127.475z" />
<glyph unicode="&#xe633;" d="M317.426 460.807l-35.831-35.831 53.758-53.758-53.781-53.757 35.853-35.854 53.757 53.758 53.758-53.758 35.853 35.854-53.78 53.757 53.757 53.758-35.83 35.831-53.758-53.758-53.757 53.758zM255.616 435.2c-98.793-0.207-178.816-80.358-178.816-179.2 0-98.969 80.23-179.2 179.2-179.2 98.849 0 179.005 80.036 179.2 178.839l-10.25-10.228-46.713 46.714c3.377-11.452 5.215-23.578 5.215-36.125 0-70.394-57.058-127.452-127.452-127.452s-127.475 57.058-127.475 127.452c0 70.394 57.081 127.474 127.475 127.474 12.541 0 24.654-1.816 36.102-5.193l-46.714 46.714 10.228 10.205zM256 358.413c-56.554 0-102.413-45.859-102.413-102.413s45.858-102.39 102.413-102.39c56.553 0 102.39 45.837 102.39 102.39 0 9.262-1.24 18.244-3.546 26.777l-19.303-19.281-10.883-11.514-15.714 15.714c0.828-3.767 1.264-7.68 1.264-11.695 0-29.95-24.26-54.209-54.209-54.209s-54.231 24.26-54.231 54.209c0 29.95 24.282 54.232 54.231 54.232 4.001 0 7.896-0.419 11.65-1.242l-15.082 15.060 10.928 11.537 19.304 19.282c-8.546 2.313-17.522 3.545-26.8 3.545z" />
<glyph unicode="&#xe634;" d="M256 435.2c-98.969 0-179.2-80.231-179.2-179.2s80.231-179.2 179.2-179.2c98.969 0 179.2 80.231 179.2 179.2s-80.231 179.2-179.2 179.2zM256 383.471c70.394 0 127.447-57.081 127.447-127.475s-57.053-127.447-127.447-127.447c-70.394 0-127.475 57.053-127.475 127.447s57.081 127.475 127.475 127.475z" />
<glyph unicode="&#xe635;" d="M460.796 285.954c0 0-127.728-77.854-123.591-75.32 0 0-4.169-2.534-7.608 0l-22.397 15.375v-98.010h132.734c11.043 0 20.862 6.448 20.862 21.81zM307.2 332.803v-78.052l24.723-15.579c0.699-0.207 2.26-0.233 2.957 0l125.916 77.803c0 9.207-8.572 15.827-13.433 15.827zM165.899 287.471c7.998 0 14.31-3.756 18.909-11.269 4.625-7.538 6.925-18.065 6.925-31.583 0-12.955-2.376-23.125-7.129-30.433-4.752-7.283-11.192-10.937-19.292-10.937-7.845 0-14.207 3.731-19.062 11.269-4.855 7.487-7.282 17.708-7.282 30.637 0 12.751 2.428 22.972 7.282 30.714 4.855 7.717 11.422 11.601 19.65 11.601zM281.6 435.2l-230.4-43.677v-293.017l230.4-47.306zM166.547 312.769c14.898 0 26.929-6.089 36.127-18.278 9.199-12.214 13.793-28.251 13.793-48.207 0-20.519-4.755-37.058-14.311-49.605-9.531-12.546-21.942-18.864-37.299-18.864-14.948 0-27.107 6.118-36.511 18.255-9.403 12.163-14.131 28.006-14.131 47.554 0 20.621 4.777 37.308 14.334 50.033 9.583 12.751 22.232 19.111 37.998 19.111z" />
<glyph unicode="&#xe636;" d="M141.964 435.211h13.236c13.253 0 24.009-10.756 24.009-24.009h-61.254c0 13.253 10.756 24.009 24.009 24.009zM124.484 409.619c-26.311 0-47.684-21.373-47.684-47.685v-237.45c0-26.312 21.373-47.685 47.684-47.685h109.457c26.311 0 47.662 21.373 47.662 47.685v237.451c0 26.311-21.351 47.684-47.661 47.684h-109.457zM102.403 128.007h153.371c0-21.416-17.349-20.433-38.788-20.433h-75.771c-21.44 0-38.811-0.983-38.811 20.433zM307.209 332.813v-78.051l24.723-15.579c0.699-0.207 2.26-0.233 2.957 0l125.916 77.803c0 9.207-8.572 15.827-13.433 15.827h-140.163zM460.805 285.965c0 0-127.728-77.854-123.591-75.32 0 0-4.169-2.534-7.608 0l-22.397 15.375v-98.010h132.734c11.043 0 20.862 6.449 20.862 21.81v136.144z" />
<glyph unicode="&#xe637;" d="M364.815 76.8c-47.16 0-86.046 35.334-91.721 80.944-0.5 5.126-5.102 15.402-16.761 15.498-11.468-0.262-16.284-10.372-16.761-15.498-5.674-45.61-44.561-80.944-91.721-80.944-51.070 0-92.46 41.414-92.46 92.484 0 12.755-1.145 24.176 1.312 36.002 14.997 70.787 31.877 150.349 39.22 185.087 3.29 15.45 9.132 20.623 10.705 22.507 1.478 1.788 7.868 6.009 13.447 7.94 14.186 4.911 46.373 14.019 46.373 14.019 5.030 1.74 10.729-3.052 12.756-8.893 2.026-5.817-0.405-14.21-5.436-15.951 0 0-14.997-3.553-29.088-8.44-7.153-2.479-10.252-6.628-10.252-6.628s-3.362-2.814-5.245-11.731c-5.364-25.249-17.214-81.135-29.469-138.952 15.212 10.991 27.943 17.5 48.138 17.5 41.772 0 77.058-27.728 88.526-65.781h39.911c11.468 38.052 46.755 65.781 88.526 65.781 20.195 0 32.926-6.509 48.137-17.5-12.255 57.817-24.105 113.704-29.469 138.952-1.884 8.917-5.245 11.731-5.245 11.731s-3.099 4.149-10.252 6.628c-14.091 4.887-29.087 8.44-29.087 8.44-5.031 1.74-7.462 10.133-5.436 15.951 2.026 5.841 7.748 10.633 12.755 8.893 0 0 32.187-9.108 46.373-14.019 5.579-1.931 11.969-6.151 13.447-7.94 1.574-1.883 7.415-7.057 10.705-22.507 7.344-34.738 24.224-114.299 39.221-185.087 0.978-11.087 1.312-23.246 1.312-36.002 0-51.070-41.39-92.484-92.46-92.484zM147.851 230.129c-33.594 0-60.822-27.252-60.822-60.846s27.228-60.846 60.822-60.846c33.618 0 60.846 27.252 60.846 60.846s-27.227 60.846-60.846 60.846zM364.815 230.129c-33.594 0-60.845-27.252-60.845-60.846s27.252-60.846 60.845-60.846c33.618 0 60.845 27.252 60.845 60.846s-27.228 60.846-60.845 60.846z" />
<glyph unicode="&#xe638;" d="M431.557 102.4h-352.929c0 0-27.427 0-27.427 30.185v206.033l87.119-76.992-57.594-117.862 73.329 103.957c0 0 36.447-35.748 57.133-50.528 13.979-9.988 27.633-25.373 44.814-25.462 16.847-0.079 30.447 14.781 44.199 24.512 21.063 14.904 57.926 51.346 57.926 51.346l74.019-104.248-55.597 120.58 84.254 74.696v-206.983c0 0-2.733-29.235-29.244-29.235zM227.555 203.393l-175.716 150.633c0 0-1.177 29.974 26.354 29.974h355.178c0 0 27.429-0.313 27.429-30.448l-175.652-150.159c-22.133-18.921-36.019-18.494-57.593 0z" />
<glyph unicode="&#xe639;" d="M421.416 283.591h-16.524c-7.594 0-15.633 5.923-17.882 13.161l-9.509 23.093c-3.563 6.659-2.094 16.523 3.229 21.89l11.758 11.714c5.367 5.389 5.367 14.163 0 19.53l-19.53 19.486c-5.344 5.367-14.118 5.367-19.486 0l-11.758-11.736c-5.344-5.367-15.232-6.815-21.913-3.229l-23.026 9.486c-7.238 2.249-13.183 10.288-13.183 17.882v16.546c0 7.572-6.213 13.785-13.807 13.785h-27.57c-7.572 0-13.785-6.213-13.785-13.785v-16.546c0-7.594-5.923-15.633-13.139-17.882l-23.093-9.486c-6.703-3.586-16.524-2.138-21.891 3.229l-11.758 11.736c-5.367 5.367-14.119 5.367-19.486 0l-19.486-19.486c-5.389-5.367-5.389-14.141 0-19.507l11.714-11.736c5.345-5.367 6.837-15.232 3.229-21.891l-9.487-23.115c-2.272-7.237-10.288-13.161-17.882-13.161l-16.568 0.022c-7.572 0-13.784-6.213-13.784-13.785v-27.591c0-7.572 6.213-13.784 13.784-13.784h16.568c7.594 0 15.611-5.946 17.86-13.183l9.509-23.071c3.607-6.68 2.115-16.568-3.229-21.913l-11.736-11.714c-5.367-5.367-5.367-14.141 0-19.53l19.508-19.486c5.367-5.367 14.119-5.367 19.486 0l11.758 11.714c5.345 5.367 15.188 6.815 21.846 3.207l23.137-9.509c7.215-2.227 13.139-10.266 13.139-17.86v-16.502c0-7.572 6.213-13.784 13.785-13.784h27.57c7.594 0 13.807 6.213 13.807 13.784v16.502c0 7.594 5.946 15.633 13.183 17.86l23.115 9.509c6.659 3.608 16.524 2.16 21.89-3.207l11.692-11.714c5.367-5.367 14.141-5.367 19.486 0l19.53 19.486c5.367 5.389 5.367 14.163 0 19.53l-11.758 11.714c-5.322 5.344-6.792 15.232-3.229 21.913l9.509 23.071c2.249 7.238 10.333 13.183 17.882 13.183h16.524c7.594 0 13.784 6.191 13.784 13.784v27.591c0 7.572-6.191 13.785-13.784 13.785zM324.99 256.022c0-38.058-30.887-68.923-68.945-68.923-38.081 0-68.945 30.865-68.945 68.923s30.865 68.923 68.945 68.923c38.058 0 68.945-30.865 68.945-68.923z" />
<glyph unicode="&#xe63a;" d="M409.031 76.8h-306.060c-14.446 0-26.169 11.724-26.169 26.194v279.904c0 14.446 11.724 26.703 26.169 26.703h21.617v-14.024c0-33.762 23.894-43.557 47.787-43.409 23.893 0.519 47.786 9.647 47.786 43.815v13.618h71.68v-14.024c0-33.762 23.893-43.025 47.786-43.409 23.894-0.012 47.786 9.647 47.786 43.815v13.618h21.617c14.469 0 26.17-12.257 26.17-26.703v-279.904c0-14.469-11.7-26.193-26.169-26.193zM339.627 124.587h47.786v47.786h-47.786zM339.627 196.267h47.786v47.787h-47.786zM196.267 124.587h47.786v47.786h-47.786zM124.587 124.587h47.786v47.786h-47.786zM124.587 196.267h47.786v47.787h-47.786zM172.636 315.733h-48.049l-0.12-47.786h48.049zM196.267 196.267h47.786v47.787h-47.786zM244.507 315.733h-47.858l-0.119-47.786h47.858zM315.661 315.733h-47.309l-0.12-47.786h47.309zM315.733 244.053h-47.786v-47.787h47.786zM315.733 172.373h-47.786v-47.786h47.786zM387.533 315.733h-48.026l-0.716-47.786h48.623zM339.627 372.474c-10.435 0-18.911 9.36-18.911 20.916v20.893c0 11.556 8.476 20.916 18.911 20.916s18.887-9.36 18.887-20.916v-20.893c0-11.556-8.452-20.916-18.887-20.916zM172.373 372.784c-10.435 0-18.887 9.312-18.887 20.797v20.821c0 11.485 8.452 20.797 18.887 20.797 10.411 0 18.863-9.312 18.863-20.797v-20.821c0-11.485-8.452-20.797-18.863-20.797z" />
<glyph unicode="&#xe63b;" d="M204.787 358.4v-76.809h-76.787v-76.81h76.787v-76.787h76.809v76.787h76.788v76.81h-76.788v76.81h-76.809z" />
<glyph unicode="&#xe63c;" d="M252.987 408.906c-46.238 0.024-92.662-21.734-113.133-68.76-3.949 0.888-8.031 1.363-12.19 1.363-15.459 0-29.456-6.27-39.588-16.401-10.11-10.11-16.373-24.072-16.401-39.487-12.718-9.613-23.37-21.749-31.198-35.641-9.471-16.818-14.876-36.202-14.876-56.817 0-32.034 12.982-61.033 33.974-82.025 42.209-42.213 124.022-34.913 193.773-31.863-13.588 10.389-18.484 18.139-30.596 35.156-37.873-1.603-108.301-8.653-137.321 22.562-36.23 36.23-29.067 97.471 14.977 124.197l11.413 6.925c-16.147 25.601 23.583 57.965 48.597 23.287 26.577 118.72 192.328 96.881 179.567-19.014 112.25 4.954 101.847-133.207 26.947-154.939l0.039 0.575c-46.133-7.198-95.765-1.262-81.14 67.774l22.562 106.54h-39.2l-3.75-16.531c-8.311 13.388-21.396 20.078-39.194 20.078-15.571 0-29.512-4.813-41.834-14.397-12.322-9.631-21.808-21.957-28.501-37.020-6.691-15.060-10.039-30.321-10.039-45.889 0-14.958 3.244-27.536 9.735-37.73s14.958-17.439 25.456-21.75c10.498-4.308 21.352-5.377 32.561-3.147 11.205 2.23 21.093 7.613 29.712 16.132 15.481-66.208 61.476-77.697 120.728-70.448v0.012c49.962 5.781 80.767 41.242 91.957 82.098 16.59 60.584-9.932 133.019-81.017 138.099 0.395 68.625-60.648 107.031-122.018 107.064zM229.491 269.113c4.363 0 8.268-0.811 11.667-2.433 3.448-1.671 6.335-4.058 8.773-7.202 2.433-3.195 4.255-6.894 5.524-11.103 1.218-4.21 1.824-8.922 1.824-14.144 0-10.599-1.821-21.558-5.473-32.916-3.651-11.306-9.025-20.685-16.126-28.141-7.1-7.401-15.263-11.154-24.594-11.154-8.011 0-14.504 3.193-19.476 9.533-4.917 6.339-7.399 15.414-7.399 27.331 0 11.56 1.875 22.77 5.625 33.62 3.804 10.849 9.127 19.673 16.125 26.418 6.995 6.792 14.859 10.191 23.53 10.191z" />
<glyph unicode="&#xe63d;" d="M390.18 241.559c-0.582 58.357 47.591 86.344 49.744 87.734-27.067 39.609-69.233 45.035-84.258 45.663-35.884 3.634-70.018-21.126-88.229-21.126-18.166 0-46.268 20.589-76.029 20.048-39.112-0.582-75.176-22.742-95.316-57.771-40.637-70.515-10.406-174.978 29.201-232.166 19.354-27.993 42.432-59.434 72.731-58.311 29.179 1.164 40.213 18.881 75.49 18.881s45.192-18.881 76.072-18.301c31.399 0.583 51.292 28.529 70.512 56.608 22.224 32.476 31.375 63.917 31.916 65.531-0.697 0.318-61.228 23.507-61.834 93.211zM332.159 412.815c16.082 19.511 26.937 46.58 23.976 73.585-23.165-0.943-51.244-15.43-67.865-34.897-14.913-17.269-27.966-44.832-24.468-71.296 25.86-2.018 52.257 13.142 68.356 32.609z" />
<glyph unicode="&#xe63e;" d="M128 435.201l-51.2-51.2 127.999-128-127.999-128 51.2-51.2 128 128 128-128 51.199 51.2-128 128 128 128-51.199 51.2-128-128z" />
<glyph unicode="&#xe63f;" d="M256.712 102.4l-154.311 153.714 154.311 153.689v-307.403z" />
<glyph unicode="&#xe640;" d="M102.4 102.4l154.281 153.71-154.281 153.684v-307.394z" />
<glyph unicode="&#xe641;" d="M256 435.2c-98.969 0-179.2-80.231-179.2-179.2s80.23-179.2 179.2-179.2c98.97 0 179.2 80.231 179.2 179.2s-80.229 179.2-179.2 179.2zM230.397 358.413h51.207v-76.81h76.81v-51.207h-76.81v-76.787h-51.207v76.787h-76.787v51.207h76.787v76.81z" />
<glyph unicode="&#xe642;" d="M256 435.2c-98.969 0-179.2-80.231-179.2-179.2s80.23-179.2 179.2-179.2c98.97 0 179.2 80.231 179.2 179.2s-80.229 179.2-179.2 179.2zM230.419 358.413h51.184l0.007-128.010h76.8l-102.401-76.8-102.4 76.8h76.8z" />
<glyph unicode="&#xe643;" d="M95.977 341.398c8.213 0 16.394-3.144 22.649-9.368l64-64c9.143-9.175 11.902-22.905 6.929-34.871-4.941-11.934-16.618-19.762-29.578-19.762h-31.983v-50.045c0-17.676 14.339-31.984 31.983-31.984h198.16c8.95 0 17.003 3.721 22.809 9.624 12.736-6.095 26.659-9.624 41.191-9.624 9.496 0 18.639 1.796 27.493 4.459-11.87-39.491-48.089-59.028-91.493-59.028h-198.16c-52.996 0-95.984 42.988-95.984 96.016v40.582h-31.984c-12.959 0-24.637 7.827-29.578 19.762-4.94 11.966-2.213 25.697 6.93 34.871l64 64c6.256 6.224 14.436 9.368 22.617 9.368zM501.856 242.27l-63.967-64c-6.256-6.224-14.436-9.368-22.616-9.368-8.213 0-16.394 3.144-22.649 9.368l-64 64c-9.143 9.175-11.87 22.905-6.93 34.871 4.941 11.934 16.618 19.762 29.579 19.762h31.983v51.745c0 17.676-14.308 32.016-31.983 32.016h-197.454c-8.95 0-16.971-3.721-22.809-9.656-12.736 6.095-26.659 9.656-41.191 9.656-9.496 0-18.638-1.828-27.492-4.491 11.901 39.491 48.12 59.028 91.493 59.028h197.454c53.028 0 95.983-42.988 95.983-95.984v-42.314h32.016c12.928 0 24.606-7.827 29.546-19.762 4.973-11.966 2.214-25.696-6.962-34.871z" />
<glyph unicode="&#xe644;" d="M254.494 188.186c46.135-6.815 80.207-35.339 88.952-43.661 8.744-8.353 13.568-67.724 13.568-67.724h-357.012c0 0-0.422 48.215 14.775 67.724 8.745 8.322 46.738 36.847 92.871 43.661 46.436 6.815 30.756 57.984 32.263 57.2 1.508-0.754-0.3 10.976-0.3 10.976s-30.454 32.294-30.153 61.452c0.603 29.158 0 48.245 0 48.245s3.919 69.141 51.26 69.141l36.486-12.755c42.516 0 49.451-56.387 49.451-56.387v-52.496c0 0-3.919-39.893-30.454-54.788 0 0-1.809-11.729-0.302-10.976s-7.538-52.798 38.596-59.613zM395.988 76.8c0 0-9.697 66.97-13.617 71.825s-35.279 45.682-76.288 52.135c4.825 13.358 0.603 16.192 1.207 15.831 1.205-0.633-0.301 9.106-0.301 9.106s-30.153 26.776-29.851 50.928c0.301 24.183 0 52.617 0 52.617s8.14 57.351 47.34 57.351l30.153-10.583c35.279 0 44.928-46.767 44.928-46.767v-56.145c0 0-6.935-33.078-28.947-45.41 0 0-1.81-9.74-0.603-9.106 1.507 0.633-6.031-43.783 32.264-49.421 38.295-5.669 63.322-29.309 70.558-36.214s13.569-30.676 13.569-56.145c-18.291 0-90.411 0-90.411 0z" />
<glyph unicode="&#xe645;" d="M256 435.2c-98.969 0-179.2-80.231-179.2-179.2s80.231-179.2 179.2-179.2c98.97 0 179.2 80.231 179.2 179.2s-80.229 179.2-179.2 179.2zM358.413 281.603v-51.207h-204.803v51.207z" />
<glyph unicode="&#xe646;" d="M416.553 317.76c-19.779 44.018-57.15 78.487-103.12 94.468l2.347 2.508c13.669 13.651 31.567 20.477 49.464 20.477 17.916 0 35.83-6.826 49.482-20.495 26.712-26.694 27.249-69.493 1.827-96.958zM364.599 134.594c-0.376-0.376-0.771-0.681-1.147-1.057l38.661-38.644-18.113-18.094-40.381 40.399c-26.264-18.327-56.917-27.608-87.624-27.608-30.725 0-61.342 9.28-87.606 27.608l-40.399-40.399-18.094 18.094 38.644 38.644c-0.376 0.376-0.77 0.681-1.147 1.057-59.999 59.998-59.999 157.261 0 217.276 29.972 29.954 69.279 44.967 108.603 44.967 39.306 0 78.63-14.995 108.603-44.967 60.016-59.999 60.016-157.279 0-217.276zM255.996 358.447c-30.761 0-59.676-11.986-81.443-33.735-21.767-21.767-33.752-50.718-33.752-81.478 0-30.492 11.752-59.174 33.125-80.87 0.537-0.466 1.039-0.95 1.541-1.433l6.45-6.342 8.456-5.912c19.385-13.526 42.083-20.674 65.624-20.674s46.257 7.148 65.678 20.692l8.331 5.822 6.521 6.413c0.519 0.502 1.057 1.003 1.594 1.487 21.265 21.481 33.089 50.234 33.089 80.816 0 30.779-11.986 59.712-33.752 81.478-21.749 21.749-50.683 33.734-81.461 33.734zM255.996 211.219c-13.114 0-24.365 7.901-29.292 19.188h-47.512c-7.059 0-12.791 5.733-12.791 12.81s5.733 12.791 12.791 12.791h47.493c3.225 7.381 9.137 13.293 16.518 16.518v60.285c0 7.077 5.715 12.81 12.792 12.81s12.81-5.733 12.81-12.81v-60.303c11.286-4.945 19.188-16.178 19.188-29.291 0-17.664-14.296-31.997-31.996-31.997zM95.44 317.743c-25.422 27.446-24.867 70.264 1.828 96.976 13.669 13.669 31.585 20.495 49.482 20.495 17.916 0 35.813-6.826 49.482-20.477l2.168-2.597c-45.899-15.963-83.198-50.396-102.959-94.396z" />
<glyph unicode="&#xe647;" d="M25.6 179.2l460.8 0.171 0 153.428h-460.8z" />
<glyph unicode="&#xe648;" d="M256 435.2c-98.969 0-179.2-80.231-179.2-179.2s80.23-179.2 179.2-179.2c98.97 0 179.2 80.231 179.2 179.2s-80.229 179.2-179.2 179.2zM256 383.994c26.090 0 50.365-7.797 70.601-21.201l-177.393-177.394c-13.404 20.236-21.201 44.511-21.201 70.601 0 70.692 57.302 127.993 127.993 127.993zM362.792 326.578c13.399-20.233 21.224-44.493 21.224-70.578-0-70.692-57.324-127.993-128.017-127.993-26.090 0-50.343 7.797-70.579 21.2l177.371 177.371z" />
<glyph unicode="&#xe649;" d="M256 435.2c-98.969 0-179.2-80.231-179.2-179.2s80.23-179.2 179.2-179.2c98.97 0 179.2 80.231 179.2 179.2s-80.229 179.2-179.2 179.2z" />
<glyph unicode="&#xe64a;" d="M409.594 460.793c-42.415 0-76.787-34.371-76.787-76.787s34.371-76.809 76.787-76.809c42.415 0 76.81 34.394 76.81 76.81s-34.395 76.787-76.81 76.787zM358.41 395.565h102.391v-25.603h-102.39v25.603zM64.409 358.413c0 0-13.209-0.011-13.209-14.089l26.394-252.397c2.193-12.894 12.35-15.127 12.35-15.127l29.013 202.364c0 0 3.432 28.175 28.154 28.155l211.289-0.119-15.506 11.648-10.094 13.952-128.004 0.012c0 0-13.732 0.010-13.705 10.634 0 0 0.555 14.969-14.089 14.969zM154.132 282.032c-8.418 0-15.593-5.475-16.708-12.305l-29.035-177.8c0 0-1.748-15.104 7.924-15.104l276.24 0.135c0 0 16.714 7.108 21.991 26.483l43.981 150.436c0 0 7.921 28.154-21.991 28.154h-282.403z" />
<glyph unicode="&#xe64b;" d="M325.069 435.914c-8.904-0.471-16.779-4.512-22.286-10.707l-140.302-146.659c-5.497-5.737-8.881-13.536-8.881-22.126s3.384-16.389 8.892-22.138l140.79-147.168c5.866-6.352 14.238-10.316 23.534-10.316 17.675 0 32.003 14.329 32.003 32.003 0 8.791-3.545 16.755-9.283 22.539l-119.66 125.079 119.662 125.081c5.687 5.773 9.197 13.703 9.197 22.452 0 17.675-14.329 32.003-32.003 32.003-0.585 0-1.166-0.015-1.744-0.046z" />
<glyph unicode="&#xe64c;" d="M185.943 435.956c-0.207 0.005-0.452 0.007-0.696 0.007-17.675 0-32.003-14.328-32.003-32.003 0-8.746 3.508-16.672 9.195-22.449l119.658-125.076-119.662-125.081c-5.744-5.784-9.293-13.752-9.293-22.55 0-17.675 14.328-32.003 32.003-32.003 9.303 0 17.678 3.969 23.526 10.306l140.85 147.201c5.497 5.737 8.881 13.536 8.881 22.126s-3.384 16.389-8.892 22.138l-140.819 147.195c-5.78 6.196-13.96 10.089-23.050 10.194z" />
<glyph unicode="&#xe64d;" d="M263.702 76.844c8.904 0.471 16.779 4.512 22.286 10.707l140.331 146.66c5.497 5.737 8.881 13.536 8.881 22.126s-3.384 16.389-8.892 22.138l-140.819 147.167c-5.868 6.359-14.243 10.329-23.546 10.329-17.675 0-32.003-14.329-32.003-32.003 0-8.797 3.55-16.766 9.296-22.551l119.661-125.079-119.662-125.081c-5.686-5.773-9.197-13.703-9.197-22.452 0-17.675 14.328-32.003 32.003-32.003 0.585 0 1.166 0.015 1.743 0.046zM110.117 76.844c8.903 0.471 16.779 4.512 22.286 10.707l140.302 146.66c5.497 5.737 8.881 13.536 8.881 22.126s-3.384 16.389-8.892 22.138l-140.79 147.167c-5.867 6.352-14.237 10.316-23.535 10.316-17.675 0-32.003-14.328-32.003-32.003 0-8.791 3.545-16.755 9.284-22.539l119.66-125.079-119.662-125.081c-5.686-5.773-9.198-13.703-9.198-22.452 0-17.675 14.329-32.003 32.003-32.003 0.585 0 1.166 0.015 1.744 0.046z" />
<glyph unicode="&#xe64e;" d="M248.298 435.927c-8.904-0.471-16.779-4.513-22.286-10.707l-140.331-146.66c-5.497-5.737-8.881-13.536-8.881-22.126s3.384-16.389 8.892-22.137l140.819-147.167c5.868-6.36 14.243-10.329 23.546-10.329 17.675 0 32.003 14.329 32.003 32.003 0 8.798-3.55 16.767-9.296 22.551l-119.661 125.079 119.662 125.081c5.687 5.773 9.197 13.703 9.197 22.452 0 17.675-14.329 32.003-32.003 32.003-0.585 0-1.166-0.016-1.743-0.047zM401.883 435.927c-8.904-0.471-16.779-4.513-22.286-10.707l-140.302-146.66c-5.497-5.737-8.881-13.536-8.881-22.126s3.384-16.389 8.892-22.137l140.79-147.167c5.866-6.352 14.238-10.316 23.534-10.316 17.675 0 32.003 14.329 32.003 32.003 0 8.791-3.545 16.755-9.284 22.539l-119.66 125.079 119.662 125.081c5.687 5.773 9.197 13.703 9.197 22.452 0 17.675-14.329 32.003-32.003 32.003-0.585 0-1.166-0.015-1.744-0.046z" />
<glyph unicode="&#xe64f;" d="M221.668 435.19c-17.728 0.055-35.2-13.812-39.173-31.089l-10.544-45.81-37.683 0.113c-18.203 0.058-36.133-14.184-40.211-31.925s7.287-32.070 25.49-32.128l37.682-0.113-20.591-89.543-37.208 0.113c-18.203 0.058-36.133-14.184-40.211-31.925s7.287-32.070 25.49-32.128l37.208-0.113-7.496-32.557c-3.973-17.277 7.107-31.238 24.835-31.293s35.2 13.812 39.173 31.089l7.496 32.557 82.59-0.271-7.383-32.083c-3.973-17.277 7.107-31.238 24.836-31.293s35.2 13.812 39.173 31.089l7.383 32.083 44.613-0.135c18.204-0.058 36.133 14.184 40.211 31.925s-7.287 32.070-25.49 32.128l-44.613 0.135 20.591 89.543 44.139-0.135c18.204-0.058 36.133 14.184 40.211 31.925s-7.287 32.071-25.49 32.128l-44.139 0.135 10.656 46.307c3.973 17.278-7.107 31.216-24.836 31.27s-35.2-13.812-39.173-31.089l-10.634-46.284-82.612 0.271 10.544 45.833c3.973 17.278-7.107 31.216-24.835 31.27zM221.239 294.034l82.59-0.271-20.591-89.543-82.589 0.271 20.591 89.543z" />
<glyph unicode="&#xe650;" d="M281.601 460.8v-102.39c0 0-230.397 25.594-230.397-153.606 0-22.19 4.839-47.854 13.523-76.8 0 0 12.074 153.593 216.874 127.993v-102.39l179.2 153.596zM162.863 220.731c-38.3-14.086-71.17-61.327-76.822-118.327 12.382-25.48 52.933-45.746 93.168-51.21 13.87 33.865 25.594 60.903 38.992 87.782-23.155 2.687-65.381 17.663-55.339 81.754z" />
<glyph unicode="&#xe651;" d="M358.39 204.8c-28.278 0-51.19-22.913-51.19-51.19s22.912-51.209 51.19-51.209c28.277 0 51.209 22.93 51.209 51.209s-22.932 51.19-51.209 51.19zM204.791 204.8c-28.279 0-51.191-22.912-51.191-51.19s22.912-51.209 51.191-51.209c28.278 0 51.209 22.93 51.209 51.209s-22.931 51.19-51.209 51.19zM51.191 204.8c-28.279 0-51.191-22.912-51.191-51.19s22.913-51.209 51.191-51.209c28.277 0 51.209 22.93 51.209 51.209s-22.931 51.19-51.209 51.19z" />
<glyph unicode="&#xe652;" d="M255.727 460.798c-0.256-0.009-0.512-0.018-0.768-0.045-3.376-0.356-6.503-2.514-8.060-5.531l-62.495-121.153-134.586-21.923c-3.71-0.605-6.968-3.401-8.128-6.976s-0.164-7.763 2.483-10.431l95.91-96.881-20.727-134.744c-0.573-3.716 1.067-7.702 4.109-9.911s7.345-2.553 10.702-0.858l121.762 61.276 121.762-61.367c3.355-1.693 7.638-1.327 10.68 0.88s4.701 6.175 4.132 9.889l-20.636 134.744 95.978 96.836c2.641 2.669 3.621 6.86 2.461 10.431s-4.423 6.369-8.128 6.976l-134.541 22.013-62.428 121.197c-1.769 3.434-5.633 5.668-9.482 5.577zM255.953 394.147l47.82-92.84 103.090-16.843-73.513-74.191 2.732-17.972 13.072-85.231-93.246 47.007-93.314-46.939 15.917 103.226-73.49 74.19 103.067 16.798 8.354 16.166 39.511 76.629z" />
<glyph unicode="&#xe653;" d="M305.815 374.863l-55.19-252.262c-3.245-14.833-19.274-22.967-33.866-18.76-14.589 4.207-22.051 19.114-18.805 33.947l55.19 252.262c3.245 14.834 19.276 22.967 33.866 18.76 14.589-4.206 22.050-19.113 18.805-33.947zM379.465 409.449c7.62-0.403 14.361-3.863 19.074-9.165l120.083-125.524c4.705-4.911 7.601-11.586 7.601-18.938s-2.896-14.027-7.611-18.947l-120.5-125.959c-5.022-5.437-12.187-8.83-20.144-8.83-15.128 0-27.392 12.264-27.392 27.392 0 7.525 3.034 14.341 7.947 19.292l102.416 107.054-102.418 107.055c-4.867 4.941-7.873 11.728-7.873 19.217 0 15.128 12.264 27.392 27.392 27.392 0.501 0 0.998-0.014 1.493-0.040zM146.453 409.462c-7.605-0.403-14.331-3.855-19.034-9.145l-119.834-125.264c-4.695-4.9-7.585-11.562-7.585-18.898s2.89-13.998 7.595-18.908l120.25-125.697c5.012-5.435 12.167-8.827 20.116-8.827 15.096 0 27.334 12.238 27.334 27.334 0 7.517-3.034 14.325-7.945 19.267l-102.203 106.832 102.204 106.833c4.857 4.931 7.856 11.703 7.856 19.177 0 15.096-12.238 27.334-27.334 27.334-0.5 0-0.996-0.014-1.489-0.040z" />
<glyph unicode="&#xe654;" d="M51.2 204.361l130.053 225.259 67.411-116.582-130.053-225.259zM327.777 209.852l-130.053 225.259 134.668 0.089 130.053-225.259zM202.339 193.471h260.106l-67.257-116.671h-260.106z" />
<glyph unicode="&#xe655;" d="M169.929 435.2l-119.502-78.525 83.982-69.519 119.499 78.526-83.978 69.518zM134.409 287.156l-83.982-69.392 119.502-78.524 83.978 69.519-119.499 78.398zM342.075 435.2l-83.982-69.518 119.502-78.526 83.978 69.519-119.499 78.526zM377.595 287.156l-119.502-78.398 83.982-69.519 119.499 78.524-83.978 69.392zM255.937 197.214l-79.541-65.839-5.833-4.693-6.219 4.060-34.757 22.834v-29.304l126.607-73.070 126.476 73.070v29.431l-41.228-27.021-5.837 4.693-79.667 65.839z" />
<glyph unicode="&#xe656;" d="M281.6 435.2c-41.374-0.147-72.246-21.316-95.463-62.693-61.058 22.62-122.29-35.167-102.781-97.773-51.584 1.332-83.356-39.544-83.356-85.334 0-56.245 44.456-87 101.243-87h308.586c56.414 0 102.171 45.722 102.171 101.831s-38.037 93.571-92.089 93.644c4.7 76.996-46.575 137.65-138.31 137.325zM256 153.6l-85.945 76.8h60.344v102.4h51.2v-102.4h51.2z" />
<glyph unicode="&#xe657;" d="M52.806 435.211c-15.014 0-27.206-12.192-27.206-27.206v-227.2c0-15.014 12.192-27.206 27.206-27.206h126.391c0.195-7.781 0-41.281-5.418-51.207h-7.608c-6.959-0.010-12.553-5.765-12.553-12.801s5.594-12.801 12.553-12.801h128.468c6.959 0 12.576 5.765 12.576 12.801s-5.616 12.793-12.576 12.801h-7.608c-5.418 9.925-5.613 43.426-5.418 51.207h126.391c15.014 0 27.206 12.192 27.206 27.206v227.2c0 15.014-12.192 27.206-27.206 27.206zM51.203 409.608h358.399v-230.406h-358.399z" />
<glyph unicode="&#xe658;" d="M256.893 408.996c-26.591-26.592-32.564-65.645-18.599-98.2 1.758-4.421 0.911-9.849-2.666-13.426l-177.482-177.514c-9.945-9.932-9.938-26.207 0-36.145 9.933-9.933 26.211-9.933 36.145 0l4.965 4.965 28.992-28.992c2.37-2.372 6.186-2.371 8.557 0l18.423 18.423c2.371 2.371 2.387 6.202 0.018 8.573l-28.992 28.992 10.488 10.488 12.899-12.899c2.224-2.224 5.823-2.224 8.047 0l10.888 10.889c2.225 2.224 2.224 5.823 0 8.046l-12.916 12.916 10.505 10.505 29.008-29.009c2.371-2.371 6.186-2.371 8.558 0l18.423 18.423c2.37 2.371 2.371 6.186 0 8.557l-29.168 28.976 78.771 78.675c3.594 3.58 8.887 4.468 13.315 2.682 32.61-14.021 71.696-8.018 98.358 18.599 34.889 34.938 34.889 91.585 0 126.474-34.938 34.938-91.6 34.938-126.538 0zM286.014 379.876c18.849 18.85 49.446 18.85 68.297-0 18.788-18.787 18.819-49.447 0.036-68.234-18.851-18.788-49.494-18.804-68.346-0.016-18.788 18.788-18.771 49.463 0.018 68.25z" />
<glyph unicode="&#xe659;" d="M256.893 434.596c-26.591-26.592-32.564-65.645-18.599-98.2 1.758-4.421 0.911-9.849-2.666-13.426l-177.482-177.514c-9.945-9.932-9.938-26.207 0-36.145 9.933-9.933 26.211-9.933 36.145 0l4.965 4.965 28.992-28.992c2.37-2.372 6.186-2.371 8.557 0l18.423 18.423c2.371 2.371 2.387 6.202 0.018 8.573l-28.992 28.992 10.488 10.488 12.899-12.899c2.224-2.224 5.823-2.224 8.047 0l10.888 10.889c2.225 2.224 2.224 5.823 0 8.046l-12.916 12.916 10.505 10.505 29.008-29.009c2.371-2.371 6.186-2.371 8.558 0l18.423 18.423c2.37 2.371 2.371 6.186 0 8.557l-29.168 28.976 78.771 78.675c3.594 3.58 8.887 4.468 13.315 2.682 32.61-14.021 71.696-8.018 98.358 18.599 34.889 34.938 34.889 91.585 0 126.474-34.938 34.938-91.6 34.938-126.538 0zM286.014 405.476c18.849 18.85 49.446 18.85 68.297-0 18.788-18.788 18.819-49.447 0.036-68.234-18.851-18.788-49.494-18.804-68.346-0.016-18.788 18.788-18.771 49.463 0.018 68.25z" />
<glyph unicode="&#xe65a;" d="M153.604 358.407h153.6v-153.6l-51.2 51.2c-63.008-44.861-61.643-90.877-25.6-102.4-71.578-7.62-107.671 69.069-25.6 153.6zM74.91 435.2c-13.134 0-23.706-10.573-23.706-23.707v-310.986c0-13.134 10.572-23.707 23.706-23.707h310.983c13.134 0 23.707 10.573 23.707 23.707v310.986c0 13.133-10.572 23.707-23.707 23.707zM102.403 384.007h256v-256h-256z" />
<glyph unicode="&#xe65b;" d="M307.2 153.6c-153.6 0-153.6 25.6-153.6 153.6h102.4l-128 128-128-128h102.4c0-179.2 25.6-204.8 204.8-204.8z" />
<glyph unicode="&#xe65c;" d="M308.655 292.28l-31.332-30.505c-2.31 2.896-4.727 4.067-8.175 7.548-6.755 6.756-14.891 10.134-24.404 10.134s-17.648-3.378-24.404-10.134l-129.398-129.466c-6.755-6.756-10.133-14.856-10.133-24.404 0-9.514 3.378-17.648 10.133-24.37 6.757-6.756 14.891-10.134 24.405-10.134 9.513 0 17.647 3.378 24.404 10.134l81.554 81.554 48.394-49.222-75.039-75.005c-17.062-17.062-38.813-24.542-65.319-22.474-26.473 2.103-49.809 13.236-70.041 33.469-20.061 20.061-31.16 43.362-33.331 69.938s5.239 48.394 22.301 65.457l117.161 117.195c17.062 17.062 38.811 24.542 65.284 22.439 26.507-2.068 49.842-13.236 70.076-33.47 7.962-7.962 3.901-5.238 7.863-8.685zM203.345 219.721l31.333 30.505c2.31-2.896 4.727-4.067 8.174-7.548 6.756-6.756 14.891-10.134 24.404-10.134s17.648 3.378 24.404 10.134l129.397 129.466c6.755 6.756 10.134 14.856 10.134 24.404 0 9.514-3.378 17.648-10.134 24.37-6.757 6.756-14.89 10.134-24.405 10.134-9.513 0-17.648-3.378-24.404-10.134l-81.554-81.554-48.394 49.222 75.039 75.005c17.062 17.062 38.813 24.542 65.319 22.473 26.473-2.102 49.808-13.236 70.041-33.469 20.061-20.061 31.161-43.362 33.332-69.938s-5.239-48.394-22.302-65.457l-117.161-117.195c-17.062-17.063-38.813-24.542-65.284-22.44-26.506 2.068-49.842 13.236-70.076 33.469-7.962 7.962-3.9 5.238-7.863 8.685z" />
<glyph unicode="&#xe65d;" d="M179.213 460.791l-102.413-102.39h204.803zM25.603 332.793c-14.182 0-25.603-11.421-25.603-25.603s11.421-25.603 25.603-25.603h307.193c14.183 0 25.603 11.421 25.603 25.603s-11.421 25.603-25.603 25.603zM25.603 230.403c-14.182 0-25.603-11.421-25.603-25.603s11.421-25.603 25.603-25.603h307.193c14.183 0 25.603 11.421 25.603 25.603s-11.421 25.603-25.603 25.603zM76.8 153.6l102.413-102.39 102.39 102.39z" />
<glyph unicode="&#xe65e;" d="M256.010 409.596c-70.894 0-133.31-29.903-178.32-62.111-22.505-16.104-40.721-32.833-53.825-47.594-6.552-7.381-11.817-14.234-15.872-20.794s-7.992-11.5-7.992-23.119c0-11.62 3.938-16.56 7.992-23.12s9.32-13.391 15.872-20.772c13.104-14.761 31.321-31.49 53.825-47.594 45.010-32.209 107.425-62.089 178.32-62.089 70.875 0 133.362 29.77 178.477 61.931 22.558 16.080 40.808 32.808 53.961 47.594 6.577 7.393 11.866 14.265 15.94 20.862s8.015 11.634 8.015 23.188c0 11.553-3.942 16.636-8.015 23.233s-9.363 13.423-15.94 20.817c-13.153 14.786-31.403 31.536-53.961 47.616-45.115 32.161-107.602 61.953-178.478 61.953zM213.857 347.62c19.376 0 34.973-15.755 34.973-35.131s-15.596-35.109-34.973-35.109c-19.376 0-35.131 15.732-35.131 35.109s15.755 35.131 35.131 35.131zM381.993 329.829c9.704-5.551 18.855-11.464 27.319-17.498 19.95-14.221 36.12-29.132 46.759-41.091 5.32-5.98 9.233-11.262 11.425-14.811 0.101-0.164 0.136-0.29 0.226-0.451-0.087-0.155-0.128-0.272-0.226-0.429-2.192-3.549-6.105-8.831-11.425-14.811-10.639-11.959-26.809-26.893-46.759-41.114-39.899-28.442-94.764-53.87-153.303-53.87-58.519 0-113.278 25.503-153.077 53.983-19.9 14.24-36.013 29.161-46.623 41.114-5.306 5.976-9.259 11.25-11.447 14.788-0.077 0.123-0.089 0.216-0.158 0.339 0.069 0.122 0.081 0.216 0.158 0.339 2.188 3.539 6.142 8.812 11.447 14.788 10.611 11.952 26.723 26.874 46.623 41.114 8.383 5.999 17.419 11.881 27.025 17.408-1.291-7.284-1.965-14.788-1.965-22.442 0-70.69 57.326-127.993 128.016-127.993s127.993 57.304 127.993 127.993c0 7.728-0.695 15.296-2.010 22.645z" />
<glyph unicode="&#xe65f;" d="M389.368 333.692h-31.297v-265.373c0-9.469-7.677-17.12-17.12-17.12h-247.126c-9.469 0-17.145 7.651-17.145 17.12v265.373h-30.504c-11.362 0-20.575 13.204-20.575 24.567s9.212 25.36 20.575 25.36h81.326v46.754c0 16.787 13.614 30.427 30.401 30.427h118.151c16.762 0 30.401-13.639 30.401-30.427v-46.754h82.913c11.362 0 20.549-13.998 20.549-25.36s-9.187-24.567-20.549-24.567zM204.502 114.024c0-6.884 5.578-12.462 12.463-12.462s12.463 5.579 12.463 12.462v207.512c0 6.884-5.578 12.463-12.463 12.463s-12.463-5.579-12.463-12.463v-207.512zM152.4 321.537c0 6.884-5.578 12.462-12.463 12.462-6.858 0-12.437-5.578-12.437-12.462v-207.513c0-6.884 5.579-12.462 12.437-12.462 6.884 0 12.463 5.579 12.463 12.462v207.512zM281.453 407.188c0 1.663-1.356 3.019-3.019 3.019h-122.143c-1.638 0-2.994-1.356-2.994-3.019v-23.569h128.156v23.569zM306.429 321.537c0 6.884-5.579 12.462-12.462 12.462s-12.437-5.578-12.437-12.462v-207.513c0-6.884 5.553-12.462 12.437-12.462s12.462 5.579 12.462 12.462v207.512z" />
<glyph unicode="&#xe660;" d="M256.010 409.596c-70.894 0-133.31-29.903-178.32-62.111-22.505-16.104-40.721-32.833-53.825-47.594-6.552-7.381-11.817-14.234-15.872-20.794s-7.992-11.5-7.992-23.119c0-11.62 3.938-16.56 7.992-23.12s9.32-13.391 15.872-20.772c8.852-9.971 20.039-20.845 33.303-31.812l-30.006-17.339c-12.283-7.091-16.461-22.69-9.37-34.973s22.691-16.461 34.973-9.37l421.233 243.208c12.283 7.091 16.461 22.691 9.37 34.973s-22.69 16.461-34.973 9.37l-56.129-32.421c-38.894 20.54-85.412 35.876-136.257 35.876zM213.857 347.62c19.376 0 34.973-15.755 34.973-35.131s-15.596-35.109-34.973-35.109-35.131 15.732-35.131 35.109c0 19.376 15.755 35.131 35.131 35.131zM129.958 329.626c-1.291-7.284-1.965-14.787-1.965-22.442 0-27.080 8.421-52.198 22.781-72.881l-53.148-30.683c-17.462 13.036-31.667 26.361-41.318 37.231-5.306 5.976-9.259 11.25-11.447 14.788-0.077 0.123-0.089 0.216-0.158 0.339 0.069 0.122 0.081 0.215 0.158 0.339 2.188 3.539 6.142 8.812 11.447 14.788 10.611 11.952 26.723 26.874 46.623 41.114 8.383 5.999 17.419 11.881 27.025 17.407zM466.637 321.882l-39.782-22.984c11.974-9.829 21.901-19.436 29.216-27.658 5.319-5.98 9.233-11.262 11.425-14.811 0.101-0.164 0.136-0.29 0.226-0.451-0.087-0.155-0.128-0.272-0.226-0.429-2.192-3.549-6.105-8.831-11.425-14.811-10.639-11.959-26.81-26.893-46.759-41.114-39.899-28.442-94.764-53.87-153.303-53.87-25.287 0-49.857 4.757-72.836 12.463l-47.797-27.59c35.47-16.579 76.388-28.222 120.633-28.222 70.875 0 133.362 29.77 178.477 61.931 22.558 16.081 40.808 32.808 53.961 47.594 6.577 7.393 11.866 14.265 15.94 20.862s8.015 11.635 8.015 23.188c0 11.553-3.942 16.636-8.015 23.233s-9.363 13.423-15.94 20.817c-6.174 6.941-13.471 14.322-21.81 21.856zM378.877 271.195l-153.123-88.392c9.706-2.353 19.826-3.613 30.254-3.613 58.195 0 107.32 38.836 122.868 92.005z" />
<glyph unicode="&#xe661;" d="M14.201 289.872c-8.232-8.589-14.201-21.34-14.201-31.496v-84.644c0-16.227 12.229-22.33 26.506-19.078 32.241 7.344 64.163 7.755 97.852 21.577 11.021 4.522 17.362 14.365 17.362 25.129v40.151c0 2.306 0.85 4.852 2.822 6.051 29.344 17.832 60.326 29.259 111.457 29.486 51.269-0.227 81.974-11.653 111.318-29.486 1.973-1.199 2.822-3.745 2.822-6.051v-40.151c0-10.764 6.342-20.608 17.363-25.129 33.689-13.822 65.611-14.233 97.852-21.577 14.277-3.252 26.507 2.851 26.507 19.078v84.644c0 10.156-5.969 22.907-14.202 31.496-49.036 51.158-152.225 68.318-241.729 68.318s-192.693-17.16-241.729-68.318z" />
<glyph unicode="&#xe662;" d="M179.2 486.4c-98.969 0-179.2-80.231-179.2-179.199 0-99.556 99.555-221.857 179.2-281.59 79.644 59.733 179.2 182.034 179.2 281.59 0 98.969-80.231 179.2-179.2 179.2zM179.191 384.009c28.277 0 51.184-22.93 51.184-51.207s-22.907-51.184-51.184-51.184c-28.277 0-51.207 22.907-51.207 51.184s22.929 51.207 51.207 51.207z" />
<glyph unicode="&#xe663;" d="M337.596 51.227c11.745 0.248 24.817 4.985 31.908 12.076l59.102 59.102c11.33 11.33 7.053 24.13-5.187 31.829-27.639 17.385-50.216 39.386-83.39 53.258-10.852 4.538-22.153 2.093-29.669-5.423l-28.035-28.035c-1.61-1.61-3.981-2.795-6.195-2.255-32.941 8.038-62.552 21.692-98.411 57.236-35.64 35.957-49.101 65.374-57.139 98.315-0.54 2.214 0.644 4.586 2.255 6.196l28.035 28.035c7.516 7.516 9.961 18.817 5.423 29.669-13.872 33.173-35.874 55.75-53.258 83.39-7.698 12.24-20.499 16.517-31.829 5.187l-59.102-59.102c-7.091-7.091-11.827-20.163-12.076-31.908-1.482-69.959 58.587-153.991 121.082-216.487s146.528-122.564 216.487-121.082z" />
<glyph unicode="&#xe664;" d="M52.897 435.2c-15.075 0-27.297-12.221-27.297-27.319v-303.739c0-15.098 12.222-27.341 27.297-27.341h252.577c15.074 0 27.319 12.243 27.319 27.341v249.959l-82.387 81.099zM240.631 420.546c1.406-0.031 3.319-1.066 5.938-3.68l66.176-66.198c0 0 14.934-11.086-5.125-10.656h-57.641c0 0-12.802-0.009-12.802 13.231v54.638c0 0-1.567 12.779 3.454 12.666zM163.995 369.053h0.093l3.982-0.117c6.788 0.294 11.117-5.094 13.325-10.187l0.702-1.827c0.575-1.662 0.757-2.264 1.054-4.403 2.149-15.589-5.948-61.707-5.948-61.707-0.387-1.721-0.823-3.398-1.312-5.316 7.498-20.541 19.546-39.234 33.957-52.692 5.357-5.007 12.183-9.152 18.805-12.974 14.787 2.070 28.831 3.079 40.514 2.95 17.257-0.227 28.609-2.877 33.722-7.916 1.82-1.779 3.5-4.404 3.771-6.51 0.908-7.099 0.231-14.029-3.115-19.063-1.699-2.558-4.492-4.441-7.798-5.316-2.144-0.567-4.784-0.843-7.846-0.843-17.236 0-44.538 8.668-66.742 21.171-29.136-4.358-62.366-12.25-91.566-21.755-25.29-44.137-43.669-63.839-59.483-63.839-2.951 0-5.816 0.692-8.548 2.061l-6.299 3.161c-3.951 2.258-4.523 7.149-3.747 10.96 2.44 11.943 17.14 26.976 39.343 40.233 2.617 1.584 13.788 7.501 14.262 7.752l6.51 3.442c6.306 10.789 13.247 23.52 20.912 38.524l0.961 1.85c7.287 14.275 15.54 30.467 22.13 46.533l2.365 5.714c-9.203 35.163-14.29 62.317-9.367 80.466 1.619 5.786 7.794 9.649 15.363 9.649zM166.665 360.903c-2.333 0-2.131-18.196-2.131-18.196 0-9.519 1.4-24.065 4.286-33.301 3.485 6.238 6.282 14.661 6.042 26.673s-3.113 24.824-8.196 24.824zM167.109 259.079c-4.316-11.162-10.096-24.752-19.273-42.106-3.765-7.090-7.465-13.778-11.006-20.116 19.447 7.476 41.536 13.631 67.094 18.688-1.745 1.329-3.398 2.678-4.965 4.005-12.567 10.639-23.265 23.911-31.849 39.531zM269.214 208.566c-5.073 0-10.716-0.223-16.885-0.679 16.056-6.884 27.51-11.123 36.767-11.123 2.868 0 7.319 0.572 8.876 1.546s1.444 5.67-7.635 7.986-11.837 2.272-21.123 2.272zM103.927 173.603c-2.392-2.274-5.004-4.736-6.066-5.597-16.877-13.83-28.287-29.398-31.17-37.282 7.776 3.519 19.587 14.731 37.236 42.879z" />
<glyph unicode="&#xe665;" d="M84.892 486.803c-4.647 0.036-9.486-1.99-14.088-6.592l-59.108-59.109c-7.091-7.091-11.831-20.157-12.079-31.902-1.482-69.959 58.59-153.981 121.085-216.476s146.517-122.566 216.476-121.084c11.745 0.248 24.834 4.988 31.925 12.079l59.086 59.086c11.33 11.33 7.069 24.136-5.171 31.834-27.639 17.385-50.228 39.389-83.403 53.261-10.852 4.538-22.151 2.098-29.667-5.418l-28.041-28.041c-1.61-1.61-3.972-2.798-6.187-2.258-32.94 8.038-62.557 21.692-98.416 57.234-35.64 35.957-49.106 65.385-57.144 98.326-0.54 2.214 0.647 4.576 2.258 6.186l28.041 28.041c7.516 7.516 9.957 18.815 5.418 29.667-13.872 33.173-35.876 55.74-53.261 83.379-4.571 7.267-10.931 11.733-17.724 11.786zM370.795 410.016v-64.008c0 0-140.795-12.795-140.795-140.795 0 0 38.395 76.786 140.795 63.986v-63.986l102.39 102.39-102.39 102.413z" />
<glyph unicode="&#xe666;" d="M85.525 486.6c-4.647 0.036-9.508-1.99-14.111-6.593l-59.086-59.108c-7.091-7.091-11.831-20.157-12.079-31.903-1.482-69.959 58.59-154.003 121.084-216.498s146.517-122.566 216.475-121.084c11.745 0.248 24.812 4.988 31.902 12.079l59.108 59.108c11.331 11.33 7.046 24.136-5.193 31.834-27.639 17.385-50.206 39.366-83.38 53.238-10.852 4.538-22.151 2.098-29.667-5.418l-28.041-28.019c-1.61-1.61-3.972-2.798-6.187-2.258-32.94 8.038-62.557 21.692-98.416 57.234-35.64 35.957-49.106 65.363-57.144 98.303-0.54 2.214 0.647 4.599 2.258 6.209l28.041 28.019c7.516 7.516 9.957 18.815 5.418 29.667-13.872 33.173-35.876 55.763-53.261 83.403-4.571 7.267-10.931 11.733-17.724 11.786zM294.618 409.791l-102.413-102.39 102.413-102.413v64.008c102.4 12.8 140.795-64.008 140.795-64.008 0 128-140.795 140.795-140.795 140.795v64.008z" />
<glyph unicode="&#xe667;" d="M327.691 185.324c43.722-6.604 52.712-21.154 60.938-29.245 8.266-8.090 9.231-44.62 9.231-44.62h-125.193l11.524 29.327-16.25 70.831c-5.671-5.82-6.476-10.835-6.476-10.835h-10.559c-9.754 0-7.321 9.163-7.321 9.163l-12.167-69.159 10.72-29.327h-125.897c0 0 0.181 36.53 8.427 44.62s16.612 22.64 60.354 29.245c43.722 6.625 37.708 30.256 39.136 29.513-0.262 8.957-1.106 21.526-1.106 21.526s-17.075 9.886-23.772 29.493c-14.078 5.8-12.227 9.535-13.595 17.026 0 0-4.263 30.421 5.249 29.781 0 0 5.289 0 3.781 6.976-0.523 11.64-0.321 31.762 0.423 39.522 0.764 7.76 6.375 28.688 22.243 31.783 15.868 3.117 9.493 1.569 14.782 2.332 5.29 0.784 3.781 3.88 13.615 3.88l20.393 3.364c9.815 0 16.13-14.076 21.418-14.839 5.289-0.785 6.536 2.353 17.376 0.289 15.868-3.096 13.656-25.262 14.42-33.022 0.744-7.74 1.247-27.882-0.262-34.858s3.218-6.191 3.218-6.191c11.322 0 7.763-29.781 7.763-29.781-1.75-7.884-5.752-8.833-16.31-15.685-6.697-19.607-20.795-31.618-20.795-31.618s-1.529-14.963-1.589-18.492c0.281-1.404-7.462-24.374 36.281-30.999zM260.64 80.79h-7.3l-11.202 30.668h30.529l-12.026-30.668zM430.005 183.224c27.824-4.489 33.545-14.379 38.78-19.878 5.26-5.499 5.875-30.329 5.875-30.329h-79.671l7.334 19.935-10.341 48.146c-3.609-3.956-4.121-7.365-4.121-7.365h-6.719c-6.207 0-4.659 6.228-4.659 6.228l-7.743-47.010 6.822-19.935h-80.12c0 0 0.115 24.83 5.363 30.329s10.572 15.389 38.409 19.878c27.824 4.503 23.998 20.566 24.906 20.061-0.166 6.089-0.704 14.632-0.704 14.632s-10.866 6.719-15.128 20.047c-8.959 3.942-7.781 6.481-8.652 11.574 0 0-2.714 20.678 3.341 20.243 0 0 3.366 0 2.406 4.742-0.333 7.912-0.204 21.59 0.269 26.864 0.486 5.274 4.057 19.5 14.156 21.604 10.098 2.119 6.041 1.066 9.407 1.585 3.366 0.533 2.406 2.637 8.664 2.637l12.978 2.287c6.245 0 10.264-9.567 13.63-10.087 3.366-0.533 4.159 1.599 11.058 0.196 10.098-2.104 8.69-17.171 9.176-22.445 0.474-5.261 0.793-18.953-0.166-23.694s2.048-4.209 2.048-4.209c7.205 0 4.94-20.243 4.94-20.243-1.113-5.359-3.661-6.004-10.38-10.661-4.262-13.327-13.233-21.491-13.233-21.491s-0.973-10.171-1.011-12.57c0.179-0.954-4.748-16.567 23.089-21.071zM387.334 112.17h-4.646l-7.129 20.846h19.428l-7.654-20.846zM172.541 183.224c27.824-4.489 33.545-14.379 38.78-19.878 5.261-5.499 5.875-30.329 5.875-30.329h-79.672l7.333 19.935-10.341 48.146c-3.609-3.956-4.121-7.365-4.121-7.365h-6.719c-6.207 0-4.659 6.228-4.659 6.228l-7.743-47.010 6.822-19.935h-80.12c0 0 0.115 24.83 5.362 30.329s10.572 15.389 38.409 19.878c27.824 4.503 23.998 20.566 24.906 20.061-0.166 6.089-0.704 14.632-0.704 14.632s-10.866 6.719-15.128 20.047c-8.959 3.942-7.781 6.481-8.652 11.574 0 0-2.713 20.678 3.341 20.243 0 0 3.366 0 2.406 4.742-0.333 7.912-0.204 21.59 0.269 26.864 0.487 5.274 4.057 19.5 14.156 21.604 10.098 2.119 6.041 1.066 9.407 1.585 3.366 0.533 2.406 2.637 8.665 2.637l12.978 2.287c6.245 0 10.264-9.567 13.631-10.087 3.366-0.533 4.16 1.599 11.058 0.196 10.098-2.104 8.69-17.171 9.177-22.445 0.474-5.261 0.793-18.953-0.167-23.694s2.048-4.209 2.048-4.209c7.206 0 4.94-20.243 4.94-20.243-1.113-5.359-3.661-6.004-10.38-10.661-4.262-13.327-13.233-21.491-13.233-21.491s-0.972-10.171-1.011-12.57c0.179-0.954-4.749-16.567 23.089-21.071zM129.87 112.17h-4.646l-7.129 20.846h19.429l-7.654-20.846z" />
<glyph unicode="&#xe668;" d="M85.303 486.399c-4.647 0.036-9.508-1.99-14.111-6.592l-59.086-59.109c-7.091-7.091-11.831-20.157-12.079-31.902-1.482-69.959 58.59-153.981 121.085-216.476s146.517-122.566 216.475-121.084c11.745 0.248 24.834 4.988 31.925 12.079l59.086 59.086c11.33 11.33 7.046 24.136-5.193 31.834-27.639 17.385-50.206 39.389-83.38 53.261-10.852 4.538-22.151 2.098-29.667-5.418l-28.041-28.041c-1.61-1.61-3.972-2.798-6.187-2.258-32.941 8.038-62.557 21.692-98.416 57.234-35.64 35.957-49.106 65.385-57.144 98.326-0.54 2.214 0.647 4.576 2.258 6.186l28.041 28.041c7.516 7.516 9.957 18.815 5.418 29.667-13.872 33.173-35.876 55.74-53.261 83.379-4.571 7.267-10.931 11.733-17.724 11.786zM385.656 375.046l-55-55.090-55.090 54.999-27.116-27.161 55.090-55-55-55.090 27.161-27.116 55 55.090 55.113-55 27.116 27.161-55.113 55 55 55.090-27.161 27.116z" />
<glyph unicode="&#xe669;" d="M25.599 179.2h358.4v-51.2h-358.4z" />
<glyph unicode="&#xe66a;" d="M25.599 486.399h358.4v-51.2h-358.4z" />
<glyph unicode="&#xe66b;" d="M76.8 486.399l-51.2-51.2 127.999-128-127.999-128 51.2-51.2 128 128 128-128 51.199 51.2-128 128 128 128-51.199 51.2-128-128z" />
<glyph unicode="&#xe66c;" d="M246.482 322.685c-36.761 0-66.56-29.8-66.56-66.56s29.8-66.56 66.56-66.56c36.76 0 66.56 29.8 66.56 66.56s-29.8 66.56-66.56 66.56z" />
<glyph unicode="&#xe66d;" d="M128.031 307.538c0.335-6.664 3.216-12.558 7.632-16.68l104.536-105.012c4.089-4.114 9.649-6.647 15.771-6.647s11.682 2.533 15.779 6.656l104.897 105.376c4.527 4.391 7.353 10.657 7.353 17.615 0 13.229-10.213 23.954-22.811 23.954-6.267 0-11.943-2.654-16.066-6.949l-89.154-89.562-89.155 89.563c-4.115 4.256-9.767 6.884-16.004 6.884-12.599 0-22.811-10.725-22.811-23.953 0-0.438 0.011-0.873 0.034-1.305z" />
<glyph unicode="&#xe66e;" d="M128.031 204.462c0.335 6.664 3.216 12.558 7.632 16.68l104.536 105.012c4.089 4.114 9.649 6.647 15.771 6.647s11.682-2.533 15.779-6.656l104.897-105.376c4.527-4.391 7.353-10.656 7.353-17.615 0-13.229-10.213-23.954-22.811-23.954-6.267 0-11.943 2.654-16.066 6.949l-89.154 89.562-89.155-89.563c-4.115-4.256-9.767-6.884-16.004-6.884-12.599 0-22.811 10.724-22.811 23.954 0 0.438 0.011 0.873 0.034 1.305z" />
<glyph unicode="&#xe66f;" d="M247.165 412.486c-9.609-2.312-20.446-10.26-25.576-18.64-4.262-7.080-5.996-12.933-6.286-21.096-0.434-12.644 3.685-23.264 12.427-31.789 8.742-8.67 19.001-12.644 31.356-12.21 11.416 0.361 20.519 4.262 28.538 12.283 16.978 16.689 16.617 44.65-0.723 60.978-5.202 4.841-12.788 9.031-19.218 10.549-5.707 1.3-14.811 1.3-20.518-0.072zM251.5 326.366c-2.529-0.144-6.792-0.65-17.629-2.023-1.951-0.289-8.959-1.806-16.040-3.468-10.548-2.601-28.827-9.103-32.873-11.776-6.719-4.407-9.754-9.465-15.389-25.865-1.661-4.769-4.118-11.921-5.563-15.895-1.373-3.974-2.962-8.526-3.54-10.115-0.506-1.589-3.468-10.043-6.502-18.784-8.959-25.576-9.175-26.371-9.175-31.067 0-5.491 1.445-9.031 5.491-13.077 6.358-6.286 10.115-6.575 26.082-2.095 3.613 1.012 9.898 2.457 14.089 3.324 4.19 0.795 8.164 1.661 8.887 1.806 2.095 0.65 1.661-4.696-0.722-8.164-3.901-5.563-8.309-8.815-27.31-20.085-17.556-10.404-23.915-14.594-29.622-19.435-5.274-4.479-6.286-5.635-8.67-9.971-2.312-4.19-2.601-5.418-3.035-11.776-0.65-9.392 3.901-16.906 13.294-21.819 8.525-4.551 10.042-4.769 41.398-5.058 25.649-0.216 28.394-0.144 27.166 0.867-0.794 0.578-1.806 1.084-2.239 1.084-1.156 0-8.959 7.875-10.332 10.476-3.323 6.214-4.552 14.305-3.035 20.519 1.734 7.225 8.237 14.739 16.978 19.579 7.225 4.046 26.443 9.898 36.774 11.199 1.951 0.216 3.757 0.578 3.974 0.723s3.034 0.433 6.214 0.723c3.179 0.289 6.43 0.65 7.225 0.795s3.757 0.505 6.575 0.723c4.696 0.361 6.141 0.072 21.169-4.335 8.887-2.601 16.617-4.769 17.123-4.769 0.578 0 1.012-0.289 1.012-0.578 0-0.361-2.817-1.084-6.286-1.589-3.54-0.578-6.502-1.012-6.719-1.084s-1.878-0.289-3.685-0.578c-1.806-0.289-4.118-0.723-5.058-0.867s-3.829-0.65-6.43-1.084c-2.601-0.361-5.491-0.867-6.502-1.084-1.012-0.144-5.852-0.939-10.837-1.806-16.040-2.601-22.036-3.829-30.345-6.286-12.21-3.613-19.796-9.031-21.602-15.389-1.734-6.286 0.361-15.606 4.48-20.157 1.661-1.734 6.647-5.13 8.019-5.491 0.434-0.072 1.445-0.433 2.239-0.795 1.806-0.795 113.792-0.867 120.222-0.072 13.294 1.661 23.192 5.058 28.972 10.043 0.578 0.505 2.023 2.24 3.179 3.757 1.734 2.312 2.168 3.685 2.457 8.092 0.361 6.141-0.723 12.861-2.962 17.628-1.806 3.829-7.875 10.187-13.51 13.944-2.168 1.517-8.019 5.491-13.005 8.887-7.659 5.202-26.010 16.401-32.151 19.651-0.939 0.505-3.396 2.529-5.418 4.551-3.179 3.106-3.613 3.974-3.613 6.502 0 2.457 0.216 2.89 1.3 2.529 0.65-0.216 3.974-0.867 7.37-1.517 6.863-1.228 18.784-4.19 21.819-5.346 3.829-1.445 10.909-1.734 13.583-0.578 7.008 2.962 11.632 9.753 11.632 16.906 0 5.563-0.144 5.997-4.841 19.363-3.829 11.127-5.635 16.184-12.933 37.208-6.214 17.917-10.476 29.983-11.343 31.789-4.624 10.765-9.464 14.666-23.697 19.363-16.978 5.636-25.938 7.947-41.543 10.62-4.551 0.723-19.94 1.589-24.565 1.228zM263.493 298.333c7.875-4.046 16.111-22.036 20.808-45.589 1.95-9.248 1.878-9.971-0.144-5.997-0.939 1.806-3.179 5.852-4.985 9.031-1.734 3.179-4.118 7.442-5.274 9.393-5.13 9.103-11.054 15.822-14.811 16.617-5.13 1.156-10.693-4.118-18.207-17.339-4.985-8.742-6.069-10.693-8.525-15.462-1.3-2.457-2.457-4.335-2.601-4.19-0.434 0.433 1.734 11.199 4.046 19.651 7.441 27.888 17.99 39.954 29.694 33.885z" />
<glyph unicode="&#xe670;" d="M204.462 128.031c6.664 0.336 12.559 3.216 16.68 7.632l105.012 104.536c4.114 4.089 6.647 9.649 6.647 15.771s-2.533 11.682-6.656 15.779l-105.376 104.897c-4.391 4.527-10.656 7.353-17.615 7.353-13.229 0-23.953-10.213-23.953-22.811 0-6.266 2.654-11.943 6.949-16.066l89.562-89.154-89.563-89.155c-4.256-4.115-6.884-9.767-6.884-16.003 0-12.599 10.725-22.811 23.953-22.811 0.438 0 0.873 0.011 1.305 0.034z" />
<glyph unicode="&#xe671;" d="M307.538 383.969c-6.664-0.335-12.558-3.216-16.68-7.632l-105.012-104.536c-4.114-4.089-6.647-9.649-6.647-15.771s2.533-11.682 6.655-15.779l105.376-104.897c4.391-4.527 10.656-7.353 17.615-7.353 13.229 0 23.954 10.213 23.954 22.811 0 6.267-2.654 11.943-6.949 16.066l-89.561 89.154 89.563 89.155c4.256 4.115 6.884 9.767 6.884 16.004 0 12.599-10.724 22.811-23.954 22.811-0.438 0-0.873-0.011-1.305-0.034z" />
</font>
</defs>
</svg>
